<svg width="187" height="187" viewBox="0 0 187 187" fill="none" xmlns="http://www.w3.org/2000/svg">
<path d="M60.1084 123.171L67.7251 114.433C66.3764 105.219 68.9958 96.0045 75.1011 89.0147L96.9201 63.9923C98.1137 62.5627 97.9549 60.339 96.4473 58.9884C94.937 57.7177 92.64 57.7966 91.3683 59.2271L64.1526 90.4442C63.3622 91.3183 62.0107 91.3972 61.0615 90.6031C60.1855 89.8089 60.1084 88.4582 60.9026 87.5052L71.7693 75.034C73.04 73.6044 72.8041 71.3797 71.2966 70.0301C69.7862 68.7584 67.5662 68.8383 66.2955 70.2679L51.7746 86.8699C46.3009 93.2244 44.0809 101.645 45.8243 110.064L45.9052 110.541L36.7819 121.026C35.8289 122.139 35.9059 123.807 37.0178 124.76L58.442 143.426C59.5501 144.459 61.2165 144.3 62.1695 143.188L66.2955 138.422L60.8208 133.656C57.7258 130.956 57.412 126.269 60.1084 123.171Z" fill="white"/>
<path d="M101.287 71.7772C102.158 72.4924 102.872 73.4455 103.348 74.3985L108.745 68.2028C110.015 66.7723 109.775 64.4687 108.268 63.198C106.761 61.8474 104.541 61.9273 103.27 63.3568L97.5557 69.8702C98.9044 70.1888 100.175 70.8241 101.287 71.7772Z" fill="white"/>
<mask id="mask0_55_60" style="mask-type:luminance" maskUnits="userSpaceOnUse" x="95" y="31" width="7" height="18">
<path d="M95.4482 31.9321H101.779V48.4542H95.4482V31.9321Z" fill="white"/>
</mask>
<g mask="url(#mask0_55_60)">
<path d="M98.68 48.2298C100.392 48.2298 101.775 46.8411 101.775 45.131V35.0309C101.775 33.3208 100.392 31.9321 98.68 31.9321C96.967 31.9321 95.5879 33.3208 95.5879 35.0309V45.131C95.5879 46.8411 96.9746 48.2298 98.68 48.2298Z" fill="white"/>
</g>
<path d="M79.7774 51.0302C80.351 52.027 81.3934 52.5815 82.4625 52.5815C82.9856 52.5815 83.5201 52.4464 84.0042 52.1668C85.4842 51.3098 85.9921 49.4171 85.1399 47.9352L80.0913 39.1886C79.2391 37.7039 77.3444 37.2074 75.8645 38.053C74.3845 38.9099 73.8776 40.8027 74.7336 42.2846L79.7774 51.0302Z" fill="white"/>
<path d="M113.355 52.1668C113.843 52.4464 114.377 52.5815 114.9 52.5815C115.969 52.5815 117.012 52.027 117.585 51.0302L122.629 42.2836C123.481 40.8027 122.978 38.9099 121.498 38.052C120.018 37.2074 118.124 37.703 117.268 39.1886L112.223 47.9352C111.371 49.4171 111.875 51.3098 113.355 52.1668Z" fill="white"/>
<path d="M144.255 93.6379C142.736 92.3082 140.532 92.3396 139.339 93.7073L124.931 110.225C124.137 111.137 122.745 111.23 121.839 110.434C120.936 109.646 120.852 108.263 121.646 107.352L141.396 84.7105C142.652 83.2677 142.442 81.0144 140.927 79.6876C139.405 78.3579 137.147 78.454 135.887 79.8969L116.141 102.538C115.342 103.45 113.955 103.544 113.045 102.748C112.131 101.949 112.038 100.559 112.832 99.6471L135.658 73.4805C136.917 72.0377 136.712 69.7939 135.205 68.4776C133.686 67.1479 131.431 67.2411 130.173 68.684L107.346 94.8515C106.551 95.7627 105.165 95.8568 104.251 95.0607C103.34 94.2627 103.243 92.8722 104.041 91.961L123.788 69.3203C125.047 67.8765 124.846 65.6308 123.339 64.3116C121.82 62.9848 119.561 63.0799 118.303 64.5237L91.0861 95.7246C90.2919 96.6358 88.9052 96.73 87.9911 95.931C87.0799 95.1359 86.9877 93.7453 87.7819 92.8341L98.6952 80.3249C99.9231 78.9162 99.6872 76.6858 98.1682 75.36C96.6607 74.0436 94.4331 74.1206 93.209 75.5283L78.7119 92.1484C73.1801 98.4877 70.9954 106.948 72.715 115.359L72.8158 115.841L63.6878 126.303C62.731 127.401 62.8432 129.076 63.9437 130.038L85.3603 148.759C86.4569 149.718 88.13 149.607 89.0868 148.509L99.2487 136.861L99.6872 136.851C107.412 136.662 114.405 133.418 119.387 127.709L144.844 98.5219C146.038 97.1542 145.774 94.9647 144.255 93.6388V93.6379Z" fill="white"/>
</svg>
