<svg width="32" height="32" viewBox="0 0 32 32" fill="none" xmlns="http://www.w3.org/2000/svg">
<path d="M15.9996 28.72C15.6041 28.7209 15.2123 28.6437 14.8467 28.4927C14.4812 28.3416 14.1491 28.1198 13.8696 27.84L3.56962 17.54C2.75596 16.7175 2.11411 15.7413 1.68147 14.6682C1.24882 13.5952 1.03404 12.4468 1.04962 11.29C1.05746 10.2298 1.27438 9.1816 1.68795 8.20541C2.10152 7.22921 2.70363 6.3442 3.45977 5.60106C4.21591 4.85792 5.11123 4.27127 6.09446 3.87469C7.07768 3.47811 8.12948 3.27941 9.18962 3.28996C10.2687 3.27909 11.339 3.48504 12.3371 3.89558C13.3351 4.30613 14.2405 4.91292 14.9996 5.67996L15.9996 6.67996L16.8196 5.85996C18.2355 4.40653 20.1302 3.51547 22.1527 3.35183C24.1752 3.1882 26.1885 3.76306 27.8196 4.96996C28.7481 5.68501 29.5137 6.58968 30.0652 7.62372C30.6168 8.65776 30.9417 9.79745 31.0183 10.9669C31.0949 12.1363 30.9215 13.3087 30.5097 14.4058C30.0978 15.503 29.4569 16.4998 28.6296 17.33L18.1296 27.84C17.8501 28.1198 17.518 28.3416 17.1525 28.4927C16.7869 28.6437 16.3951 28.7209 15.9996 28.72ZM9.14962 5.27996C7.56014 5.27834 6.03238 5.89518 4.88962 6.99996C4.30702 7.5605 3.84371 8.23301 3.52752 8.97709C3.21132 9.72117 3.04877 10.5215 3.04962 11.33C3.04085 12.2193 3.2087 13.1015 3.54344 13.9254C3.87817 14.7494 4.37313 15.4987 4.99962 16.13L15.2996 26.43C15.3926 26.5237 15.5032 26.5981 15.625 26.6489C15.7469 26.6996 15.8776 26.7258 16.0096 26.7258C16.1416 26.7258 16.2723 26.6996 16.3942 26.6489C16.5161 26.5981 16.6267 26.5237 16.7196 26.43L27.2296 15.91C27.8465 15.28 28.3232 14.5266 28.6282 13.6994C28.9333 12.8721 29.0599 11.9896 28.9996 11.11C28.9462 10.2213 28.7014 9.35462 28.282 8.56931C27.8626 7.784 27.2785 7.09858 26.5696 6.55996C25.3257 5.64285 23.7909 5.20922 22.251 5.33984C20.7111 5.47046 19.2712 6.15644 18.1996 7.26996L16.7096 8.79996C16.6167 8.89369 16.5061 8.96808 16.3842 9.01885C16.2623 9.06962 16.1316 9.09576 15.9996 9.09576C15.8676 9.09576 15.7369 9.06962 15.615 9.01885C15.4932 8.96808 15.3826 8.89369 15.2896 8.79996L13.5896 7.09996C12.4187 5.93924 10.8383 5.28553 9.18962 5.27996H9.14962Z" fill="#6D15FF"/>
</svg>
