<svg width="66" height="83" viewBox="0 0 66 83" fill="none" xmlns="http://www.w3.org/2000/svg">
<path d="M65.2143 2.96429V80.0357C65.2143 80.8219 64.902 81.5759 64.3461 82.1318C63.7902 82.6877 63.0362 83 62.25 83H2.96429C2.17811 83 1.42413 82.6877 0.86822 82.1318C0.312308 81.5759 0 80.8219 0 80.0357V74.1071H5.92857V77.0714H59.2857V5.92857H5.92857V14.8214H0V2.96429C0 2.17811 0.312308 1.42413 0.86822 0.868219C1.42413 0.312308 2.17811 0 2.96429 0H62.25C63.0362 0 63.7902 0.312308 64.3461 0.868219C64.902 1.42413 65.2143 2.17811 65.2143 2.96429ZM21.6096 54.2168L25.8189 58.4261L40.6404 43.6046C40.9182 43.3291 41.1387 43.0012 41.2892 42.64C41.4397 42.2788 41.5172 41.8913 41.5172 41.5C41.5172 41.1087 41.4397 40.7212 41.2892 40.36C41.1387 39.9988 40.9182 39.6709 40.6404 39.3954L25.8189 24.5739L21.6096 28.7832L31.3918 38.5357H0V44.4643H31.3918L21.6096 54.2168Z" fill="#2C64C6"/>
</svg>
