<svg width="46" height="46" viewBox="0 0 46 46" fill="none" xmlns="http://www.w3.org/2000/svg">
<path d="M19.4743 0.331921C19.0253 0.663811 19.0253 1.20906 18.9544 22.782C18.8835 47.176 18.8362 45.9907 20.3251 45.9907C21.8141 45.9907 21.7668 47.176 21.6959 22.782C21.625 1.20906 21.625 0.663811 21.176 0.331921C20.916 0.142265 20.5379 2.67029e-05 20.3251 2.67029e-05C20.1124 2.67029e-05 19.7343 0.142265 19.4743 0.331921Z" fill="white"/>
<path d="M24.0833 0.403133C23.7997 0.711319 23.7524 4.55178 23.6815 22.7584L23.6343 44.7344L24.1306 45.3507C24.6978 46.0856 25.525 46.1804 26.0686 45.5641C26.4467 45.1611 26.4704 43.2408 26.4704 22.948C26.4704 1.77811 26.4467 0.758732 26.045 0.403133C25.4777 -0.118412 24.4851 -0.118412 24.0833 0.403133Z" fill="white"/>
<path d="M14.6531 1.65936C14.2041 2.10979 14.1804 2.44168 14.1804 6.99333C14.1804 12.3747 14.0622 12.9674 12.7624 13.6312C12.3842 13.8208 11.557 13.9868 10.8953 13.9868C9.38268 13.9868 8.57912 14.2949 8.22461 15.0298C8.0119 15.504 8.03554 15.741 8.36641 16.2389C8.74456 16.8078 8.86273 16.8315 11.0134 16.8315C14.1804 16.8315 15.4567 16.1203 16.5202 13.7497C16.9693 12.7777 17.0165 12.2088 17.0165 7.30152C17.0165 2.01496 17.0165 1.92013 16.4966 1.56454C15.7875 1.0667 15.2203 1.09041 14.6531 1.65936Z" fill="white"/>
<path d="M28.952 1.77792C27.4867 3.22402 29.212 5.3339 30.9136 4.12487C31.9772 3.38996 31.2918 1.18526 30.0155 1.18526C29.7319 1.18526 29.2592 1.44603 28.952 1.77792Z" fill="white"/>
<path d="M9.92609 4.03011C9.52431 4.43312 9.45341 4.81243 9.45341 6.49559C9.45341 8.36841 9.40614 8.53436 8.83892 8.98478C8.03536 9.62486 7.96446 9.62486 7.01909 8.77142C5.69558 7.6098 4.49023 7.89428 4.49023 9.38779C4.49023 10.2649 5.3647 11.4503 6.4046 11.9718C7.68085 12.6593 9.71339 12.3511 10.8242 11.308C11.9586 10.2412 12.2895 9.19814 12.2895 6.66154C12.2895 4.48054 12.2422 4.26718 11.7696 3.93529C11.0605 3.43745 10.4933 3.46116 9.92609 4.03011Z" fill="white"/>
<path d="M32.6861 4.95481C31.079 5.50006 30.2045 6.18755 29.2828 7.63365C28.5737 8.72415 28.4792 9.12716 28.4083 10.6918C28.3138 12.2564 28.3847 12.6594 28.9283 13.6788C29.7318 15.2909 31.1735 16.4999 32.6625 16.8081C33.3006 16.9503 35.9712 17.0688 38.5946 17.0688C43.7941 17.0688 44.385 16.9503 44.7632 15.8124C44.9522 15.2672 44.905 15.0775 44.4795 14.6271C43.9596 14.1292 43.7705 14.1055 38.8073 14.0581C35.9949 14.0344 33.4424 13.9396 33.1588 13.8685C32.8515 13.7973 32.2843 13.2995 31.9062 12.7543C30.9608 11.4741 30.9608 10.3599 31.8825 9.07975C32.7334 7.89442 33.6787 7.49141 35.2386 7.63365C36.5857 7.77589 37.4366 8.43967 38.4056 10.1228C39.0909 11.2845 39.7291 11.5689 40.5326 11.0474C41.4071 10.4784 41.478 9.83836 40.769 8.41596C39.3037 5.38153 35.8058 3.88802 32.6861 4.95481Z" fill="white"/>
<path d="M33.5605 9.7196C32.5442 10.739 33.2769 12.3984 34.7422 12.3984C36.2548 12.3984 36.9166 10.7864 35.853 9.76701C35.1676 9.12694 34.175 9.10323 33.5605 9.7196Z" fill="white"/>
<path d="M1.89081 14.4612C1.27632 15.0775 1.29995 15.9784 1.93808 16.5948C3.00161 17.5904 4.72691 16.8792 4.72691 15.4331C4.72691 14.1293 2.85981 13.4892 1.89081 14.4612Z" fill="white"/>
<path d="M0.519922 19.3446C-0.118201 19.795 -0.16547 20.8618 0.425385 21.407C0.803532 21.7626 1.60709 21.8101 6.87751 21.8101C10.1863 21.8101 13.2824 21.9049 13.7551 22.0234C14.2277 22.1419 15.0313 22.5687 15.5276 22.9717C16.4966 23.7777 17.2529 23.8962 17.8201 23.3273C18.9546 22.2131 17.4893 20.0321 15.1258 19.3446C13.2824 18.7993 1.29985 18.7756 0.519922 19.3446Z" fill="white"/>
<path d="M30.2044 19.3445C28.6918 19.8187 27.1792 21.2411 27.1792 22.2367C27.1792 23.0902 27.6992 23.7065 28.4554 23.7065C28.7627 23.7065 29.4953 23.3035 30.1335 22.8057L31.2679 21.9286L38.2164 21.81C44.763 21.6915 45.2121 21.6678 45.5193 21.2411C45.9684 20.601 45.9447 20.0083 45.3775 19.4394C44.9285 18.9889 44.5976 18.9652 38.1218 18.9889C32.875 18.9889 31.0552 19.0838 30.2044 19.3445Z" fill="white"/>
<path d="M0.945367 23.9673C0.236342 24.2518 0 24.5837 0 25.3897C0 26.6936 0.401781 26.7884 5.81401 26.7884C8.53194 26.7884 11.1317 26.9069 11.5807 27.0255C12.0534 27.144 12.7861 27.6419 13.2351 28.0923L14.0623 28.9457L14.1805 36.6503C14.2987 43.9519 14.3223 44.3787 14.7477 44.7106C15.3386 45.1373 15.8349 45.1373 16.4967 44.6631C17.0166 44.3075 17.0166 44.2838 17.0166 36.5555C17.0166 28.922 16.993 28.7798 16.4494 27.5944C15.7167 26.0061 14.2278 24.7497 12.337 24.1807C11.0372 23.7777 10.1627 23.7066 6.16852 23.7303C3.61603 23.7303 1.27625 23.8488 0.945367 23.9673Z" fill="white"/>
<path d="M33.8439 23.9674C31.5278 24.4179 29.8498 25.7454 28.8808 27.9027C28.5262 28.685 28.479 29.7993 28.4081 36.2711C28.3372 43.6202 28.3372 43.7624 28.8335 44.4025C29.4243 45.1611 30.2515 45.2322 30.8188 44.5921C31.1969 44.1654 31.2442 43.4068 31.2914 36.8164C31.3623 26.4329 31.0551 26.7885 39.7997 26.7885C42.6831 26.7885 45.1411 26.6937 45.2829 26.5989C45.7556 26.2907 46.1101 25.3661 45.9683 24.8683C45.661 23.8963 44.5502 23.7067 39.5398 23.7304C36.9636 23.7541 34.4112 23.8489 33.8439 23.9674Z" fill="white"/>
<path d="M1.70202 29.4673C1.0639 30.1311 1.04026 30.8423 1.60748 31.3638C1.96199 31.6957 2.55285 31.7668 4.46722 31.7668C7.27968 31.7668 8.27232 32.0987 8.98134 33.2366C9.40676 33.9478 9.45403 34.4219 9.45403 38.0016C9.45403 41.9132 9.45403 41.9843 10.0449 42.5533C10.7303 43.2645 10.8721 43.2882 11.6756 42.6481L12.2901 42.174V37.7172C12.2901 33.4263 12.2665 33.2366 11.6756 32.0513C10.4939 29.6806 8.83954 28.922 4.84536 28.922C2.38741 28.922 2.1747 28.9694 1.70202 29.4673Z" fill="white"/>
<path d="M36.5148 29.4909C35.8767 29.799 35.0495 30.3443 34.695 30.7236C33.466 32.0512 33.3242 32.7624 33.3242 37.7644C33.3242 41.9131 33.3715 42.4109 33.7496 42.7428C34.3169 43.2644 34.7895 43.2406 35.4277 42.7191C35.9003 42.3398 35.9476 42.079 35.9949 38.1674C36.0658 32.1223 36.3494 31.7667 41.3126 31.7667C44.0069 31.7667 44.1959 31.743 44.5268 31.2451C45.0231 30.5339 44.9995 29.965 44.4323 29.396C44.0069 28.9693 43.6524 28.9219 40.8399 28.9219C38.0274 28.9219 37.5784 28.993 36.5148 29.4909Z" fill="white"/>
<path d="M5.05768 35.6783C4.39593 36.3421 4.32503 37.2192 4.91588 37.883C5.67217 38.8076 7.09022 38.5705 7.56291 37.48C7.77561 36.911 7.77561 36.6503 7.46837 36.0576C7.25566 35.6546 6.94842 35.3227 6.78298 35.299C6.64117 35.299 6.3103 35.2516 6.05032 35.2042C5.81398 35.1568 5.36493 35.3701 5.05768 35.6783Z" fill="white"/>
<path d="M38.1928 35.8441C37.6492 36.6264 37.7438 37.4087 38.4292 38.0488C39.2564 38.8074 39.5872 38.7837 40.4617 37.9303C41.0289 37.3376 41.1471 37.0768 41.0053 36.5553C40.769 35.5833 40.4381 35.3225 39.4454 35.3225C38.7837 35.3225 38.4528 35.4648 38.1928 35.8441Z" fill="white"/>
</svg>
