<svg xmlns="http://www.w3.org/2000/svg" xmlns:xlink="http://www.w3.org/1999/xlink" width="500" zoomAndPan="magnify" viewBox="0 0 375 374.999991" height="500" preserveAspectRatio="xMidYMid meet" version="1.0"><defs><clipPath id="c29395abb3"><path d="M 53 53.175781 L 106 53.175781 L 106 98 L 53 98 Z M 53 53.175781 " clip-rule="nonzero"/></clipPath><clipPath id="58344325a6"><path d="M 269 53.175781 L 322 53.175781 L 322 98 L 269 98 Z M 269 53.175781 " clip-rule="nonzero"/></clipPath></defs><path fill="#000000" d="M 295.328125 302.394531 C 294.40625 302.398438 293.496094 302.496094 292.59375 302.683594 C 291.695312 302.875 290.820312 303.152344 289.976562 303.519531 C 289.132812 303.886719 288.332031 304.332031 287.578125 304.863281 C 286.824219 305.390625 286.132812 305.992188 285.5 306.664062 C 284.871094 307.332031 284.3125 308.058594 283.828125 308.84375 C 283.34375 309.628906 282.945312 310.453125 282.628906 311.316406 C 282.3125 312.183594 282.089844 313.070312 281.953125 313.980469 C 281.816406 314.890625 281.777344 315.808594 281.828125 316.726562 C 282.832031 317.355469 283.878906 317.90625 284.960938 318.386719 C 286.042969 318.867188 287.15625 319.273438 288.292969 319.597656 C 289.433594 319.925781 290.589844 320.171875 291.765625 320.335938 C 292.9375 320.5 294.117188 320.585938 295.300781 320.585938 C 296.488281 320.585938 297.667969 320.507812 298.839844 320.34375 C 300.015625 320.179688 301.171875 319.9375 302.3125 319.613281 C 303.453125 319.289062 304.5625 318.886719 305.648438 318.410156 C 306.730469 317.929688 307.777344 317.378906 308.785156 316.753906 C 308.839844 315.835938 308.800781 314.921875 308.667969 314.007812 C 308.535156 313.097656 308.3125 312.210938 308 311.34375 C 307.6875 310.480469 307.289062 309.652344 306.808594 308.867188 C 306.328125 308.082031 305.773438 307.355469 305.144531 306.683594 C 304.511719 306.011719 303.824219 305.410156 303.070312 304.878906 C 302.320312 304.347656 301.519531 303.898438 300.675781 303.53125 C 299.832031 303.160156 298.960938 302.882812 298.0625 302.691406 C 297.160156 302.5 296.25 302.402344 295.328125 302.394531 Z M 295.328125 302.394531 " fill-opacity="1" fill-rule="nonzero"/><path fill="#000000" d="M 79.667969 297.707031 C 80.75 297.710938 81.820312 297.8125 82.886719 298.007812 C 83.949219 298.207031 84.988281 298.496094 86 298.875 C 87.011719 299.257812 87.980469 299.726562 88.910156 300.285156 C 89.835938 300.839844 90.707031 301.472656 91.523438 302.183594 C 92.339844 302.898438 93.082031 303.675781 93.757812 304.519531 C 94.433594 305.367188 95.027344 306.265625 95.542969 307.214844 C 96.058594 308.167969 96.484375 309.15625 96.820312 310.183594 C 97.160156 311.214844 97.402344 312.261719 97.550781 313.335938 C 98.167969 312.742188 98.753906 312.121094 99.304688 311.472656 C 99.859375 310.824219 100.378906 310.148438 100.867188 309.445312 C 101.351562 308.746094 101.800781 308.019531 102.21875 307.273438 C 102.632812 306.527344 103.007812 305.765625 103.34375 304.980469 C 103.683594 304.195312 103.980469 303.398438 104.242188 302.585938 C 104.5 301.773438 104.71875 300.949219 104.894531 300.113281 C 105.070312 299.277344 105.207031 298.4375 105.296875 297.585938 C 105.390625 296.738281 105.441406 295.886719 105.449219 295.035156 C 105.457031 294.179688 105.421875 293.328125 105.347656 292.480469 C 105.269531 291.628906 105.152344 290.785156 104.992188 289.949219 C 104.828125 289.109375 104.628906 288.28125 104.382812 287.464844 C 104.140625 286.644531 103.859375 285.839844 103.535156 285.050781 C 103.210938 284.261719 102.851562 283.488281 102.449219 282.734375 C 102.050781 281.980469 101.613281 281.25 101.140625 280.539062 C 100.667969 279.828125 100.160156 279.144531 99.617188 278.484375 C 99.078125 277.824219 98.503906 277.191406 97.902344 276.589844 C 97.898438 276.585938 97.890625 276.585938 97.886719 276.582031 C 97.886719 276.578125 97.882812 276.574219 97.878906 276.570312 C 97.28125 275.964844 96.65625 275.390625 96 274.847656 C 95.34375 274.304688 94.664062 273.796875 93.957031 273.320312 C 93.25 272.847656 92.523438 272.40625 91.773438 272.003906 C 91.023438 271.601562 90.257812 271.234375 89.472656 270.910156 C 88.6875 270.582031 87.886719 270.296875 87.074219 270.046875 C 86.257812 269.800781 85.433594 269.59375 84.601562 269.425781 C 83.765625 269.261719 82.925781 269.136719 82.078125 269.054688 C 81.230469 268.96875 80.382812 268.929688 79.53125 268.929688 C 78.679688 268.933594 77.832031 268.976562 76.984375 269.0625 C 76.136719 269.144531 75.296875 269.273438 74.464844 269.441406 C 73.628906 269.609375 72.804688 269.820312 71.992188 270.070312 C 71.179688 270.320312 70.382812 270.609375 69.597656 270.941406 C 68.8125 271.269531 68.046875 271.636719 67.296875 272.042969 C 66.550781 272.445312 65.824219 272.886719 65.117188 273.367188 C 64.414062 273.84375 63.734375 274.351562 63.082031 274.898438 C 62.425781 275.441406 61.800781 276.019531 61.203125 276.625 C 60.609375 277.230469 60.042969 277.867188 59.507812 278.527344 C 58.976562 279.191406 58.476562 279.878906 58.007812 280.589844 C 57.542969 281.300781 57.113281 282.035156 56.71875 282.789062 C 56.328125 283.542969 55.972656 284.316406 55.65625 285.105469 C 55.339844 285.894531 55.0625 286.699219 54.824219 287.515625 C 54.585938 288.332031 54.390625 289.160156 54.238281 289.996094 C 54.082031 290.832031 53.96875 291.675781 53.894531 292.523438 C 53.824219 293.371094 53.792969 294.222656 53.808594 295.070312 C 53.820312 295.921875 53.875 296.769531 53.96875 297.617188 C 54.066406 298.460938 54.203125 299.300781 54.382812 300.132812 C 54.5625 300.964844 54.785156 301.785156 55.042969 302.59375 C 55.304688 303.40625 55.605469 304.199219 55.945312 304.980469 C 56.285156 305.761719 56.664062 306.519531 57.078125 307.265625 C 57.492188 308.007812 57.941406 308.726562 58.429688 309.425781 C 58.914062 310.125 59.433594 310.796875 59.988281 311.441406 C 60.542969 312.089844 61.125 312.707031 61.738281 313.296875 C 61.894531 312.226562 62.140625 311.175781 62.480469 310.148438 C 62.820312 309.121094 63.25 308.132812 63.769531 307.183594 C 64.285156 306.234375 64.882812 305.335938 65.558594 304.496094 C 66.238281 303.652344 66.984375 302.875 67.800781 302.164062 C 68.617188 301.453125 69.488281 300.824219 70.417969 300.269531 C 71.347656 299.714844 72.320312 299.25 73.332031 298.867188 C 74.34375 298.488281 75.382812 298.199219 76.449219 298.003906 C 77.511719 297.808594 78.585938 297.710938 79.667969 297.707031 Z M 79.667969 279.5625 C 79.972656 279.5625 80.277344 279.59375 80.582031 279.652344 C 80.882812 279.714844 81.175781 279.800781 81.460938 279.921875 C 81.746094 280.039062 82.015625 280.183594 82.269531 280.355469 C 82.527344 280.523438 82.765625 280.71875 82.980469 280.9375 C 83.199219 281.15625 83.394531 281.390625 83.566406 281.648438 C 83.734375 281.902344 83.878906 282.171875 83.996094 282.457031 C 84.117188 282.742188 84.203125 283.035156 84.265625 283.335938 C 84.324219 283.640625 84.355469 283.945312 84.355469 284.25 C 84.355469 284.558594 84.324219 284.863281 84.265625 285.167969 C 84.203125 285.46875 84.117188 285.761719 83.996094 286.046875 C 83.878906 286.332031 83.734375 286.601562 83.566406 286.855469 C 83.394531 287.113281 83.199219 287.347656 82.980469 287.566406 C 82.765625 287.785156 82.527344 287.980469 82.269531 288.148438 C 82.015625 288.320312 81.746094 288.464844 81.460938 288.582031 C 81.175781 288.699219 80.882812 288.789062 80.582031 288.851562 C 80.277344 288.910156 79.972656 288.941406 79.667969 288.941406 C 79.359375 288.941406 79.054688 288.910156 78.75 288.851562 C 78.449219 288.789062 78.15625 288.699219 77.871094 288.582031 C 77.585938 288.464844 77.316406 288.320312 77.0625 288.148438 C 76.804688 287.980469 76.570312 287.785156 76.351562 287.566406 C 76.132812 287.347656 75.9375 287.113281 75.769531 286.855469 C 75.597656 286.601562 75.453125 286.332031 75.335938 286.046875 C 75.21875 285.761719 75.128906 285.46875 75.066406 285.167969 C 75.007812 284.863281 74.976562 284.558594 74.976562 284.25 C 74.976562 283.945312 75.007812 283.640625 75.066406 283.335938 C 75.128906 283.035156 75.21875 282.742188 75.335938 282.457031 C 75.453125 282.171875 75.597656 281.902344 75.769531 281.648438 C 75.9375 281.390625 76.132812 281.15625 76.351562 280.9375 C 76.570312 280.71875 76.804688 280.523438 77.0625 280.355469 C 77.316406 280.183594 77.585938 280.039062 77.871094 279.921875 C 78.15625 279.800781 78.449219 279.714844 78.75 279.652344 C 79.054688 279.59375 79.359375 279.5625 79.667969 279.5625 Z M 79.667969 279.5625 " fill-opacity="1" fill-rule="nonzero"/><path fill="#000000" d="M 295.328125 269.015625 C 293.636719 269.015625 291.960938 269.179688 290.300781 269.507812 C 288.644531 269.835938 287.03125 270.328125 285.46875 270.972656 C 283.90625 271.621094 282.421875 272.417969 281.015625 273.359375 C 279.609375 274.300781 278.308594 275.367188 277.113281 276.566406 C 277.109375 276.570312 277.109375 276.574219 277.105469 276.578125 C 277.101562 276.582031 277.097656 276.582031 277.09375 276.585938 C 276.492188 277.1875 275.917969 277.820312 275.378906 278.476562 C 274.835938 279.136719 274.332031 279.820312 273.859375 280.53125 C 273.386719 281.238281 272.949219 281.972656 272.550781 282.722656 C 272.148438 283.476562 271.789062 284.246094 271.464844 285.035156 C 271.140625 285.824219 270.859375 286.628906 270.613281 287.445312 C 270.371094 288.261719 270.167969 289.089844 270.007812 289.925781 C 269.847656 290.761719 269.726562 291.605469 269.648438 292.453125 C 269.570312 293.304688 269.535156 294.152344 269.542969 295.003906 C 269.550781 295.859375 269.601562 296.707031 269.691406 297.554688 C 269.785156 298.402344 269.917969 299.242188 270.09375 300.078125 C 270.269531 300.914062 270.484375 301.734375 270.742188 302.546875 C 271 303.359375 271.296875 304.160156 271.632812 304.941406 C 271.96875 305.726562 272.34375 306.488281 272.753906 307.234375 C 273.167969 307.980469 273.617188 308.707031 274.101562 309.40625 C 274.585938 310.109375 275.101562 310.785156 275.65625 311.433594 C 276.207031 312.082031 276.789062 312.703125 277.402344 313.296875 C 277.550781 312.222656 277.792969 311.171875 278.132812 310.144531 C 278.46875 309.117188 278.898438 308.125 279.414062 307.171875 C 279.929688 306.222656 280.523438 305.324219 281.203125 304.476562 C 281.878906 303.632812 282.625 302.855469 283.445312 302.144531 C 284.261719 301.433594 285.132812 300.800781 286.066406 300.25 C 286.996094 299.695312 287.96875 299.230469 288.980469 298.851562 C 289.996094 298.472656 291.035156 298.1875 292.101562 297.992188 C 293.167969 297.800781 294.242188 297.707031 295.324219 297.707031 C 296.40625 297.707031 297.480469 297.804688 298.546875 298 C 299.613281 298.195312 300.652344 298.480469 301.664062 298.863281 C 302.679688 299.246094 303.648438 299.710938 304.578125 300.269531 C 305.507812 300.824219 306.382812 301.457031 307.195312 302.167969 C 308.011719 302.882812 308.757812 303.660156 309.433594 304.507812 C 310.109375 305.355469 310.703125 306.253906 311.21875 307.207031 C 311.730469 308.160156 312.15625 309.152344 312.492188 310.179688 C 312.828125 311.210938 313.066406 312.261719 313.214844 313.335938 C 314.136719 312.449219 314.984375 311.5 315.765625 310.488281 C 316.546875 309.476562 317.246094 308.410156 317.867188 307.292969 C 318.488281 306.175781 319.023438 305.019531 319.472656 303.824219 C 319.921875 302.628906 320.277344 301.40625 320.546875 300.15625 C 320.8125 298.90625 320.984375 297.644531 321.066406 296.367188 C 321.144531 295.09375 321.128906 293.820312 321.019531 292.546875 C 320.910156 291.273438 320.703125 290.015625 320.40625 288.773438 C 320.109375 287.53125 319.722656 286.316406 319.242188 285.132812 C 318.765625 283.949219 318.203125 282.804688 317.554688 281.703125 C 316.90625 280.601562 316.179688 279.554688 315.375 278.5625 C 314.570312 277.570312 313.699219 276.640625 312.753906 275.777344 C 311.8125 274.914062 310.8125 274.128906 309.753906 273.414062 C 308.695312 272.699219 307.585938 272.066406 306.433594 271.519531 C 305.28125 270.96875 304.09375 270.507812 302.871094 270.132812 C 301.648438 269.761719 300.40625 269.480469 299.140625 269.292969 C 297.878906 269.105469 296.605469 269.011719 295.328125 269.015625 Z M 295.328125 288.941406 C 295.019531 288.941406 294.714844 288.910156 294.414062 288.851562 C 294.113281 288.789062 293.820312 288.699219 293.535156 288.582031 C 293.25 288.464844 292.980469 288.320312 292.722656 288.148438 C 292.46875 287.980469 292.230469 287.785156 292.015625 287.566406 C 291.796875 287.347656 291.601562 287.113281 291.429688 286.855469 C 291.257812 286.601562 291.117188 286.332031 290.996094 286.046875 C 290.878906 285.761719 290.789062 285.46875 290.730469 285.167969 C 290.671875 284.863281 290.640625 284.558594 290.640625 284.25 C 290.640625 283.945312 290.671875 283.640625 290.730469 283.335938 C 290.789062 283.035156 290.878906 282.742188 290.996094 282.457031 C 291.117188 282.171875 291.257812 281.902344 291.429688 281.648438 C 291.601562 281.390625 291.796875 281.15625 292.015625 280.9375 C 292.230469 280.71875 292.46875 280.523438 292.722656 280.355469 C 292.980469 280.183594 293.25 280.039062 293.535156 279.921875 C 293.820312 279.800781 294.113281 279.714844 294.414062 279.652344 C 294.714844 279.59375 295.019531 279.5625 295.328125 279.5625 C 295.636719 279.5625 295.941406 279.59375 296.242188 279.652344 C 296.546875 279.714844 296.839844 279.800781 297.121094 279.921875 C 297.40625 280.039062 297.675781 280.183594 297.933594 280.355469 C 298.191406 280.523438 298.425781 280.71875 298.644531 280.9375 C 298.863281 281.15625 299.054688 281.390625 299.226562 281.648438 C 299.398438 281.902344 299.542969 282.171875 299.660156 282.457031 C 299.777344 282.742188 299.867188 283.035156 299.925781 283.335938 C 299.988281 283.640625 300.015625 283.945312 300.015625 284.25 C 300.015625 284.558594 299.988281 284.863281 299.925781 285.167969 C 299.867188 285.46875 299.777344 285.761719 299.660156 286.046875 C 299.542969 286.332031 299.398438 286.601562 299.226562 286.855469 C 299.054688 287.113281 298.863281 287.347656 298.644531 287.566406 C 298.425781 287.785156 298.191406 287.980469 297.933594 288.148438 C 297.675781 288.320312 297.40625 288.464844 297.121094 288.582031 C 296.839844 288.699219 296.546875 288.789062 296.242188 288.851562 C 295.941406 288.910156 295.636719 288.941406 295.328125 288.941406 Z M 295.328125 288.941406 " fill-opacity="1" fill-rule="nonzero"/><path fill="#000000" d="M 79.667969 86.734375 C 78.746094 86.738281 77.835938 86.835938 76.933594 87.027344 C 76.035156 87.21875 75.160156 87.5 74.320312 87.867188 C 73.476562 88.234375 72.675781 88.6875 71.925781 89.21875 C 71.171875 89.746094 70.484375 90.347656 69.851562 91.019531 C 69.222656 91.691406 68.667969 92.421875 68.1875 93.207031 C 67.707031 93.992188 67.308594 94.816406 66.996094 95.679688 C 66.683594 96.546875 66.460938 97.4375 66.328125 98.347656 C 66.195312 99.257812 66.15625 100.171875 66.210938 101.089844 C 67.21875 101.714844 68.261719 102.265625 69.347656 102.746094 C 70.433594 103.226562 71.542969 103.625 72.683594 103.949219 C 73.824219 104.273438 74.980469 104.515625 76.15625 104.679688 C 77.328125 104.84375 78.507812 104.925781 79.691406 104.921875 C 80.878906 104.921875 82.058594 104.839844 83.230469 104.671875 C 84.40625 104.507812 85.5625 104.261719 86.699219 103.9375 C 87.839844 103.609375 88.949219 103.207031 90.035156 102.726562 C 91.117188 102.242188 92.160156 101.691406 93.167969 101.0625 C 93.21875 100.144531 93.175781 99.230469 93.042969 98.316406 C 92.90625 97.40625 92.683594 96.519531 92.367188 95.652344 C 92.050781 94.789062 91.648438 93.964844 91.167969 93.179688 C 90.683594 92.398438 90.125 91.671875 89.492188 91 C 88.863281 90.328125 88.171875 89.730469 87.417969 89.199219 C 86.664062 88.671875 85.863281 88.222656 85.019531 87.855469 C 84.175781 87.488281 83.300781 87.210938 82.398438 87.023438 C 81.5 86.832031 80.585938 86.738281 79.667969 86.734375 Z M 79.667969 86.734375 " fill-opacity="1" fill-rule="nonzero"/><g clip-path="url(#c29395abb3)"><path fill="#000000" d="M 79.667969 82.046875 C 80.75 82.046875 81.820312 82.148438 82.886719 82.34375 C 83.949219 82.539062 84.988281 82.824219 86 83.207031 C 87.011719 83.585938 87.984375 84.054688 88.914062 84.605469 C 89.84375 85.160156 90.714844 85.792969 91.53125 86.503906 C 92.347656 87.210938 93.09375 87.988281 93.773438 88.832031 C 94.449219 89.675781 95.046875 90.570312 95.566406 91.523438 C 96.082031 92.472656 96.511719 93.460938 96.851562 94.488281 C 97.191406 95.515625 97.441406 96.5625 97.59375 97.632812 C 97.6875 97.542969 97.789062 97.464844 97.878906 97.375 C 97.882812 97.367188 97.882812 97.363281 97.886719 97.359375 C 97.894531 97.355469 97.898438 97.355469 97.902344 97.351562 C 98.5 96.753906 99.070312 96.125 99.609375 95.46875 C 100.148438 94.816406 100.652344 94.132812 101.125 93.429688 C 101.597656 92.722656 102.03125 91.996094 102.433594 91.25 C 102.832031 90.5 103.195312 89.734375 103.519531 88.949219 C 103.84375 88.164062 104.125 87.367188 104.371094 86.554688 C 104.617188 85.742188 104.824219 84.921875 104.988281 84.089844 C 105.152344 83.257812 105.273438 82.417969 105.355469 81.574219 C 105.4375 80.730469 105.476562 79.882812 105.476562 79.035156 C 105.472656 78.1875 105.429688 77.339844 105.34375 76.496094 C 105.257812 75.652344 105.132812 74.8125 104.964844 73.980469 C 104.796875 73.148438 104.585938 72.328125 104.339844 71.515625 C 104.089844 70.707031 103.800781 69.910156 103.472656 69.128906 C 103.144531 68.34375 102.78125 67.578125 102.375 66.832031 C 101.972656 66.085938 101.535156 65.363281 101.058594 64.660156 C 100.585938 63.957031 100.078125 63.277344 99.535156 62.625 C 98.992188 61.972656 98.421875 61.347656 97.816406 60.75 C 97.214844 60.152344 96.582031 59.589844 95.925781 59.054688 C 95.265625 58.519531 94.582031 58.019531 93.871094 57.550781 C 93.164062 57.085938 92.433594 56.652344 91.683594 56.257812 C 90.933594 55.863281 90.164062 55.507812 89.378906 55.1875 C 88.59375 54.871094 87.792969 54.589844 86.976562 54.351562 C 86.164062 54.109375 85.339844 53.910156 84.507812 53.75 C 83.675781 53.59375 82.835938 53.476562 81.988281 53.398438 C 81.144531 53.324219 80.296875 53.289062 79.449219 53.296875 C 78.601562 53.304688 77.753906 53.351562 76.910156 53.445312 C 76.066406 53.535156 75.230469 53.667969 74.402344 53.839844 C 73.570312 54.015625 72.75 54.226562 71.941406 54.484375 C 71.132812 54.738281 70.335938 55.03125 69.554688 55.363281 C 68.777344 55.695312 68.011719 56.066406 67.269531 56.476562 C 66.527344 56.882812 65.804688 57.328125 65.105469 57.804688 C 64.402344 58.285156 63.730469 58.796875 63.078125 59.34375 C 62.429688 59.890625 61.808594 60.464844 61.214844 61.074219 C 60.625 61.679688 60.0625 62.316406 59.53125 62.976562 C 59.003906 63.640625 58.507812 64.328125 58.042969 65.039062 C 57.582031 65.75 57.15625 66.484375 56.765625 67.238281 C 56.375 67.992188 56.023438 68.761719 55.710938 69.550781 C 55.398438 70.335938 55.121094 71.140625 54.886719 71.953125 C 54.652344 72.769531 54.457031 73.59375 54.304688 74.429688 C 54.152344 75.265625 54.039062 76.105469 53.96875 76.949219 C 53.898438 77.796875 53.871094 78.640625 53.882812 79.488281 C 53.894531 80.339844 53.953125 81.183594 54.046875 82.027344 C 54.144531 82.871094 54.28125 83.707031 54.460938 84.535156 C 54.640625 85.363281 54.859375 86.183594 55.121094 86.992188 C 55.378906 87.796875 55.679688 88.589844 56.015625 89.371094 C 56.355469 90.148438 56.730469 90.90625 57.140625 91.648438 C 57.554688 92.390625 58.003906 93.109375 58.488281 93.804688 C 58.972656 94.503906 59.488281 95.175781 60.039062 95.820312 C 60.589844 96.464844 61.167969 97.082031 61.78125 97.671875 C 61.929688 96.601562 62.171875 95.550781 62.511719 94.523438 C 62.847656 93.496094 63.273438 92.503906 63.789062 91.554688 C 64.304688 90.601562 64.898438 89.703125 65.574219 88.859375 C 66.25 88.011719 66.996094 87.234375 67.808594 86.523438 C 68.625 85.8125 69.496094 85.175781 70.421875 84.621094 C 71.351562 84.066406 72.320312 83.597656 73.332031 83.214844 C 74.347656 82.832031 75.382812 82.542969 76.449219 82.347656 C 77.511719 82.148438 78.585938 82.050781 79.667969 82.046875 Z M 79.667969 63.902344 C 79.972656 63.902344 80.277344 63.929688 80.582031 63.992188 C 80.882812 64.050781 81.175781 64.140625 81.460938 64.257812 C 81.746094 64.375 82.015625 64.519531 82.269531 64.691406 C 82.527344 64.863281 82.765625 65.054688 82.980469 65.273438 C 83.199219 65.492188 83.394531 65.730469 83.566406 65.984375 C 83.734375 66.242188 83.878906 66.511719 83.996094 66.796875 C 84.117188 67.078125 84.203125 67.371094 84.265625 67.675781 C 84.324219 67.976562 84.355469 68.28125 84.355469 68.589844 C 84.355469 68.898438 84.324219 69.203125 84.265625 69.503906 C 84.203125 69.804688 84.117188 70.097656 83.996094 70.382812 C 83.878906 70.667969 83.734375 70.9375 83.566406 71.195312 C 83.394531 71.449219 83.199219 71.6875 82.980469 71.90625 C 82.765625 72.121094 82.527344 72.316406 82.269531 72.488281 C 82.015625 72.660156 81.746094 72.804688 81.460938 72.921875 C 81.175781 73.039062 80.882812 73.128906 80.582031 73.1875 C 80.277344 73.246094 79.972656 73.277344 79.667969 73.277344 C 79.359375 73.277344 79.054688 73.246094 78.75 73.1875 C 78.449219 73.128906 78.15625 73.039062 77.871094 72.921875 C 77.585938 72.804688 77.316406 72.660156 77.0625 72.488281 C 76.804688 72.316406 76.570312 72.121094 76.351562 71.90625 C 76.132812 71.6875 75.9375 71.449219 75.769531 71.195312 C 75.597656 70.9375 75.453125 70.667969 75.335938 70.382812 C 75.21875 70.097656 75.128906 69.804688 75.066406 69.503906 C 75.007812 69.203125 74.976562 68.898438 74.976562 68.589844 C 74.976562 68.28125 75.007812 67.976562 75.066406 67.675781 C 75.128906 67.371094 75.21875 67.078125 75.335938 66.796875 C 75.453125 66.511719 75.597656 66.242188 75.769531 65.984375 C 75.9375 65.730469 76.132812 65.492188 76.351562 65.273438 C 76.570312 65.054688 76.804688 64.863281 77.0625 64.691406 C 77.316406 64.519531 77.585938 64.375 77.871094 64.257812 C 78.15625 64.140625 78.449219 64.050781 78.75 63.992188 C 79.054688 63.929688 79.359375 63.902344 79.667969 63.902344 Z M 79.667969 63.902344 " fill-opacity="1" fill-rule="nonzero"/></g><path fill="#000000" d="M 79.667969 302.394531 C 78.746094 302.398438 77.835938 302.496094 76.933594 302.683594 C 76.03125 302.875 75.160156 303.152344 74.3125 303.519531 C 73.46875 303.886719 72.667969 304.332031 71.914062 304.863281 C 71.164062 305.390625 70.46875 305.992188 69.839844 306.664062 C 69.207031 307.332031 68.648438 308.058594 68.164062 308.84375 C 67.683594 309.628906 67.28125 310.453125 66.964844 311.316406 C 66.652344 312.183594 66.425781 313.070312 66.289062 313.980469 C 66.15625 314.890625 66.113281 315.808594 66.164062 316.726562 C 67.171875 317.355469 68.214844 317.90625 69.296875 318.386719 C 70.382812 318.867188 71.492188 319.273438 72.632812 319.597656 C 73.773438 319.925781 74.929688 320.171875 76.101562 320.335938 C 77.273438 320.5 78.453125 320.585938 79.640625 320.585938 C 80.824219 320.585938 82.003906 320.507812 83.179688 320.34375 C 84.351562 320.179688 85.507812 319.9375 86.648438 319.613281 C 87.789062 319.289062 88.902344 318.886719 89.984375 318.410156 C 91.070312 317.929688 92.113281 317.378906 93.121094 316.753906 C 93.175781 315.835938 93.136719 314.921875 93.003906 314.007812 C 92.875 313.097656 92.652344 312.210938 92.335938 311.34375 C 92.023438 310.480469 91.628906 309.652344 91.144531 308.867188 C 90.664062 308.082031 90.109375 307.355469 89.480469 306.683594 C 88.851562 306.011719 88.160156 305.410156 87.40625 304.878906 C 86.65625 304.347656 85.859375 303.898438 85.015625 303.53125 C 84.171875 303.160156 83.296875 302.882812 82.398438 302.691406 C 81.496094 302.5 80.585938 302.402344 79.667969 302.394531 Z M 79.667969 302.394531 " fill-opacity="1" fill-rule="nonzero"/><path fill="#000000" d="M 308.785156 101.09375 C 309.21875 93.363281 303.074219 86.664062 295.257812 86.78125 C 287.710938 86.609375 281.273438 93.578125 281.828125 101.066406 C 282.832031 101.691406 283.878906 102.246094 284.960938 102.726562 C 286.042969 103.207031 287.15625 103.609375 288.292969 103.9375 C 289.433594 104.261719 290.589844 104.507812 291.765625 104.671875 C 292.9375 104.839844 294.117188 104.921875 295.300781 104.921875 C 296.488281 104.925781 297.667969 104.84375 298.839844 104.679688 C 300.015625 104.519531 301.171875 104.273438 302.3125 103.949219 C 303.453125 103.625 304.5625 103.226562 305.648438 102.746094 C 306.730469 102.269531 307.777344 101.714844 308.785156 101.09375 Z M 308.785156 101.09375 " fill-opacity="1" fill-rule="nonzero"/><g clip-path="url(#58344325a6)"><path fill="#000000" d="M 295.328125 53.351562 C 294.0625 53.351562 292.800781 53.445312 291.546875 53.628906 C 290.292969 53.816406 289.058594 54.089844 287.84375 54.460938 C 286.632812 54.828125 285.453125 55.28125 284.304688 55.824219 C 283.160156 56.363281 282.058594 56.988281 281.003906 57.691406 C 279.949219 58.394531 278.953125 59.171875 278.015625 60.023438 C 277.074219 60.875 276.203125 61.789062 275.398438 62.769531 C 274.59375 63.75 273.867188 64.785156 273.214844 65.871094 C 272.5625 66.957031 271.992188 68.085938 271.507812 69.257812 C 271.023438 70.429688 270.625 71.628906 270.316406 72.859375 C 270.007812 74.089844 269.792969 75.335938 269.667969 76.597656 C 269.542969 77.859375 269.511719 79.121094 269.574219 80.386719 C 269.636719 81.65625 269.792969 82.910156 270.039062 84.152344 C 270.285156 85.394531 270.625 86.613281 271.050781 87.808594 C 271.476562 89.003906 271.988281 90.15625 272.585938 91.277344 C 273.183594 92.394531 273.863281 93.460938 274.617188 94.480469 C 275.371094 95.5 276.199219 96.457031 277.09375 97.351562 C 277.097656 97.355469 277.101562 97.355469 277.105469 97.359375 C 277.109375 97.363281 277.109375 97.367188 277.113281 97.371094 C 277.203125 97.460938 277.304688 97.539062 277.394531 97.628906 C 277.546875 96.558594 277.792969 95.507812 278.132812 94.484375 C 278.472656 93.457031 278.902344 92.46875 279.421875 91.519531 C 279.9375 90.570312 280.535156 89.675781 281.214844 88.832031 C 281.890625 87.992188 282.636719 87.214844 283.457031 86.507812 C 284.273438 85.800781 285.144531 85.171875 286.074219 84.617188 C 287.003906 84.066406 287.976562 83.601562 288.988281 83.226562 C 290.003906 82.847656 291.042969 82.566406 292.105469 82.375 C 293.167969 82.183594 294.242188 82.089844 295.324219 82.089844 C 296.40625 82.089844 297.476562 82.1875 298.539062 82.382812 C 299.605469 82.574219 300.640625 82.863281 301.652344 83.242188 C 302.664062 83.621094 303.636719 84.089844 304.566406 84.640625 C 305.492188 85.195312 306.363281 85.828125 307.179688 86.539062 C 307.996094 87.246094 308.742188 88.023438 309.417969 88.867188 C 310.09375 89.710938 310.6875 90.609375 311.203125 91.558594 C 311.71875 92.511719 312.144531 93.5 312.480469 94.527344 C 312.820312 95.550781 313.0625 96.601562 313.214844 97.671875 C 314.132812 96.785156 314.984375 95.835938 315.765625 94.824219 C 316.542969 93.8125 317.242188 92.75 317.867188 91.632812 C 318.488281 90.515625 319.023438 89.359375 319.472656 88.164062 C 319.921875 86.964844 320.277344 85.742188 320.546875 84.496094 C 320.8125 83.246094 320.984375 81.984375 321.066406 80.707031 C 321.144531 79.433594 321.128906 78.15625 321.019531 76.886719 C 320.910156 75.613281 320.703125 74.355469 320.40625 73.113281 C 320.109375 71.867188 319.722656 70.65625 319.242188 69.46875 C 318.765625 68.285156 318.203125 67.140625 317.554688 66.042969 C 316.90625 64.941406 316.179688 63.894531 315.375 62.898438 C 314.570312 61.90625 313.699219 60.980469 312.757812 60.117188 C 311.8125 59.253906 310.8125 58.464844 309.753906 57.75 C 308.695312 57.035156 307.585938 56.40625 306.433594 55.855469 C 305.28125 55.304688 304.09375 54.84375 302.871094 54.472656 C 301.648438 54.097656 300.40625 53.820312 299.140625 53.632812 C 297.878906 53.445312 296.605469 53.351562 295.328125 53.351562 Z M 295.328125 73.277344 C 295.019531 73.277344 294.714844 73.246094 294.414062 73.1875 C 294.113281 73.128906 293.820312 73.039062 293.535156 72.921875 C 293.25 72.804688 292.980469 72.660156 292.722656 72.488281 C 292.46875 72.316406 292.230469 72.121094 292.015625 71.90625 C 291.796875 71.6875 291.601562 71.449219 291.429688 71.195312 C 291.257812 70.9375 291.117188 70.667969 290.996094 70.382812 C 290.878906 70.097656 290.789062 69.804688 290.730469 69.503906 C 290.671875 69.203125 290.640625 68.898438 290.640625 68.589844 C 290.640625 68.28125 290.671875 67.976562 290.730469 67.675781 C 290.789062 67.371094 290.878906 67.078125 290.996094 66.796875 C 291.117188 66.511719 291.257812 66.242188 291.429688 65.984375 C 291.601562 65.730469 291.796875 65.492188 292.015625 65.273438 C 292.230469 65.054688 292.46875 64.863281 292.722656 64.691406 C 292.980469 64.519531 293.25 64.375 293.535156 64.257812 C 293.820312 64.140625 294.113281 64.050781 294.414062 63.992188 C 294.714844 63.929688 295.019531 63.902344 295.328125 63.902344 C 295.636719 63.902344 295.941406 63.929688 296.242188 63.992188 C 296.546875 64.050781 296.839844 64.140625 297.121094 64.257812 C 297.40625 64.375 297.675781 64.519531 297.933594 64.691406 C 298.191406 64.863281 298.425781 65.054688 298.644531 65.273438 C 298.863281 65.492188 299.054688 65.730469 299.226562 65.984375 C 299.398438 66.242188 299.542969 66.511719 299.660156 66.796875 C 299.777344 67.078125 299.867188 67.371094 299.925781 67.675781 C 299.988281 67.976562 300.015625 68.28125 300.015625 68.589844 C 300.015625 68.898438 299.988281 69.203125 299.925781 69.503906 C 299.867188 69.804688 299.777344 70.097656 299.660156 70.382812 C 299.542969 70.667969 299.398438 70.9375 299.226562 71.195312 C 299.054688 71.449219 298.863281 71.6875 298.644531 71.90625 C 298.425781 72.121094 298.191406 72.316406 297.933594 72.488281 C 297.675781 72.660156 297.40625 72.804688 297.121094 72.921875 C 296.839844 73.039062 296.546875 73.128906 296.242188 73.1875 C 295.941406 73.246094 295.636719 73.277344 295.328125 73.277344 Z M 295.328125 73.277344 " fill-opacity="1" fill-rule="nonzero"/></g><path fill="#000000" d="M 99.449219 102.203125 L 154.445312 157.246094 C 153.53125 158.25 152.664062 159.296875 151.847656 160.382812 C 151.03125 161.46875 150.265625 162.589844 149.550781 163.746094 C 148.835938 164.902344 148.175781 166.089844 147.570312 167.308594 C 146.96875 168.527344 146.421875 169.769531 145.929688 171.035156 C 145.441406 172.304688 145.007812 173.59375 144.636719 174.898438 C 144.265625 176.207031 143.957031 177.527344 143.707031 178.867188 C 143.457031 180.203125 143.269531 181.546875 143.144531 182.898438 C 143.019531 184.253906 142.957031 185.609375 142.957031 186.96875 C 142.957031 188.328125 143.019531 189.683594 143.144531 191.039062 C 143.269531 192.390625 143.457031 193.738281 143.707031 195.074219 C 143.957031 196.410156 144.265625 197.730469 144.636719 199.039062 C 145.007812 200.347656 145.441406 201.632812 145.929688 202.902344 C 146.421875 204.171875 146.96875 205.414062 147.570312 206.628906 C 148.175781 207.847656 148.835938 209.035156 149.550781 210.191406 C 150.265625 211.347656 151.03125 212.46875 151.847656 213.554688 C 152.664062 214.640625 153.53125 215.6875 154.445312 216.691406 L 124.628906 246.558594 C 121.214844 242.972656 118.136719 239.121094 115.386719 235.003906 C 112.636719 230.886719 110.261719 226.5625 108.253906 222.039062 C 106.25 217.511719 104.644531 212.847656 103.441406 208.046875 C 102.242188 203.246094 101.457031 198.375 101.09375 193.4375 C 101.34375 193.335938 101.589844 193.214844 101.832031 193.082031 C 102.070312 192.949219 102.300781 192.804688 102.523438 192.644531 C 102.746094 192.484375 102.957031 192.3125 103.160156 192.125 C 103.363281 191.941406 103.554688 191.746094 103.734375 191.539062 C 103.914062 191.332031 104.078125 191.113281 104.234375 190.886719 C 104.386719 190.660156 104.527344 190.425781 104.652344 190.183594 C 104.78125 189.941406 104.890625 189.691406 104.988281 189.4375 C 105.085938 189.179688 105.167969 188.917969 105.234375 188.652344 C 105.304688 188.386719 105.355469 188.117188 105.390625 187.847656 C 105.425781 187.574219 105.445312 187.304688 105.449219 187.027344 C 105.453125 186.753906 105.441406 186.480469 105.410156 186.210938 C 105.382812 185.9375 105.339844 185.667969 105.28125 185.398438 C 105.21875 185.132812 105.144531 184.871094 105.054688 184.609375 C 104.964844 184.351562 104.859375 184.101562 104.738281 183.855469 C 104.617188 183.609375 104.484375 183.371094 104.335938 183.140625 C 104.1875 182.910156 104.027344 182.6875 103.855469 182.476562 C 103.679688 182.261719 103.496094 182.0625 103.296875 181.871094 C 103.101562 181.683594 102.894531 181.503906 102.675781 181.339844 C 102.457031 181.171875 102.230469 181.019531 101.992188 180.878906 C 101.757812 180.742188 101.515625 180.617188 101.265625 180.503906 C 101.015625 180.394531 100.757812 180.296875 100.496094 180.21875 C 100.234375 180.136719 99.96875 180.070312 99.699219 180.019531 C 99.429688 179.972656 99.160156 179.9375 98.886719 179.917969 C 98.613281 179.898438 98.339844 179.898438 98.066406 179.910156 C 97.792969 179.925781 97.519531 179.953125 97.25 180 C 96.980469 180.046875 96.714844 180.105469 96.449219 180.183594 C 96.1875 180.261719 95.929688 180.351562 95.675781 180.457031 C 95.425781 180.566406 95.179688 180.6875 94.941406 180.820312 C 94.703125 180.957031 94.472656 181.105469 94.253906 181.269531 C 94.03125 181.429688 93.820312 181.605469 93.621094 181.792969 C 93.421875 181.976562 93.234375 182.175781 93.054688 182.382812 C 92.878906 182.59375 92.714844 182.8125 92.5625 183.039062 C 92.410156 183.269531 92.273438 183.503906 92.148438 183.75 C 92.023438 183.992188 91.914062 184.242188 91.820312 184.5 C 91.722656 184.757812 91.644531 185.019531 91.582031 185.285156 C 91.515625 185.550781 91.46875 185.820312 91.433594 186.09375 C 91.402344 186.363281 91.386719 186.636719 91.382812 186.910156 C 91.382812 187.183594 91.398438 187.457031 91.429688 187.730469 C 91.460938 188.003906 91.507812 188.273438 91.570312 188.539062 C 91.632812 188.804688 91.710938 189.066406 91.800781 189.324219 C 91.894531 189.582031 92.003906 189.832031 92.125 190.078125 C 92.25 190.324219 92.382812 190.5625 92.535156 190.789062 C 92.683594 191.019531 92.847656 191.238281 93.023438 191.449219 C 93.199219 191.660156 93.386719 191.859375 93.585938 192.046875 C 93.785156 192.234375 93.996094 192.410156 94.214844 192.574219 C 94.433594 192.738281 94.664062 192.886719 94.898438 193.023438 C 95.136719 193.160156 95.382812 193.285156 95.632812 193.394531 C 95.882812 193.5 96.140625 193.59375 96.402344 193.671875 C 96.78125 198.894531 97.605469 204.046875 98.875 209.125 C 100.144531 214.203125 101.839844 219.136719 103.960938 223.925781 C 106.082031 228.710938 108.597656 233.28125 111.511719 237.628906 C 114.421875 241.980469 117.683594 246.050781 121.296875 249.839844 L 100.386719 270.75 C 101.574219 271.804688 102.652344 272.960938 103.625 274.21875 L 124.628906 253.167969 C 125.671875 254.167969 126.742188 255.140625 127.835938 256.089844 C 128.925781 257.039062 130.042969 257.960938 131.175781 258.855469 C 132.3125 259.753906 133.472656 260.621094 134.648438 261.460938 C 135.828125 262.300781 137.023438 263.113281 138.238281 263.898438 C 139.457031 264.679688 140.691406 265.433594 141.941406 266.160156 C 143.195312 266.882812 144.464844 267.578125 145.75 268.242188 C 147.035156 268.90625 148.335938 269.539062 149.652344 270.140625 C 150.96875 270.742188 152.296875 271.3125 153.640625 271.851562 C 154.980469 272.390625 156.335938 272.894531 157.703125 273.371094 C 159.070312 273.84375 160.449219 274.285156 161.835938 274.691406 C 163.226562 275.101562 164.621094 275.476562 166.027344 275.816406 C 167.433594 276.160156 168.847656 276.46875 170.265625 276.742188 C 171.6875 277.015625 173.113281 277.253906 174.546875 277.460938 C 175.976562 277.667969 177.414062 277.839844 178.855469 277.976562 C 180.296875 278.117188 181.738281 278.21875 183.183594 278.289062 C 184.628906 278.355469 186.074219 278.390625 187.519531 278.390625 C 188.96875 278.390625 190.414062 278.355469 191.859375 278.289062 C 193.304688 278.21875 194.746094 278.117188 196.1875 277.976562 C 197.628906 277.839844 199.0625 277.667969 200.496094 277.460938 C 201.925781 277.253906 203.355469 277.015625 204.773438 276.742188 C 206.195312 276.46875 207.609375 276.160156 209.015625 275.816406 C 210.421875 275.476562 211.816406 275.101562 213.207031 274.691406 C 214.59375 274.285156 215.972656 273.84375 217.335938 273.371094 C 218.703125 272.894531 220.058594 272.390625 221.402344 271.851562 C 222.746094 271.3125 224.074219 270.742188 225.390625 270.140625 C 226.707031 269.539062 228.007812 268.90625 229.292969 268.242188 C 230.578125 267.578125 231.847656 266.882812 233.097656 266.160156 C 234.351562 265.433594 235.585938 264.679688 236.800781 263.898438 C 238.019531 263.113281 239.214844 262.300781 240.394531 261.460938 C 241.570312 260.621094 242.726562 259.753906 243.863281 258.855469 C 245 257.960938 246.113281 257.039062 247.207031 256.089844 C 248.300781 255.140625 249.367188 254.167969 250.414062 253.167969 L 271.417969 274.171875 C 272.371094 272.929688 273.433594 271.789062 274.605469 270.75 L 220.550781 216.691406 C 221.464844 215.6875 222.332031 214.640625 223.148438 213.554688 C 223.964844 212.46875 224.730469 211.347656 225.445312 210.191406 C 226.160156 209.035156 226.820312 207.847656 227.421875 206.628906 C 228.027344 205.414062 228.574219 204.171875 229.066406 202.902344 C 229.554688 201.632812 229.984375 200.347656 230.355469 199.039062 C 230.726562 197.730469 231.039062 196.410156 231.289062 195.074219 C 231.535156 193.738281 231.722656 192.390625 231.847656 191.039062 C 231.972656 189.683594 232.035156 188.328125 232.035156 186.96875 C 232.035156 185.609375 231.972656 184.253906 231.847656 182.898438 C 231.722656 181.546875 231.535156 180.203125 231.289062 178.867188 C 231.039062 177.527344 230.726562 176.207031 230.355469 174.898438 C 229.984375 173.59375 229.554688 172.304688 229.066406 171.035156 C 228.574219 169.769531 228.027344 168.527344 227.421875 167.308594 C 226.820312 166.089844 226.160156 164.902344 225.445312 163.746094 C 224.730469 162.589844 223.964844 161.46875 223.148438 160.382812 C 222.332031 159.296875 221.464844 158.25 220.550781 157.246094 L 250.367188 127.378906 C 253.78125 130.96875 256.859375 134.820312 259.609375 138.9375 C 262.359375 143.054688 264.734375 147.375 266.738281 151.898438 C 268.746094 156.425781 270.347656 161.089844 271.550781 165.890625 C 272.753906 170.695312 273.539062 175.5625 273.902344 180.5 C 273.511719 180.660156 273.140625 180.855469 272.785156 181.085938 C 272.429688 181.3125 272.097656 181.574219 271.789062 181.863281 C 271.484375 182.152344 271.203125 182.464844 270.949219 182.804688 C 270.699219 183.144531 270.480469 183.503906 270.292969 183.882812 C 270.105469 184.261719 269.957031 184.652344 269.839844 185.058594 C 269.722656 185.464844 269.644531 185.878906 269.605469 186.300781 C 269.5625 186.71875 269.558594 187.140625 269.59375 187.5625 C 269.628906 187.980469 269.703125 188.398438 269.8125 188.804688 C 269.921875 189.210938 270.066406 189.609375 270.246094 189.988281 C 270.429688 190.371094 270.640625 190.734375 270.886719 191.078125 C 271.136719 191.417969 271.410156 191.738281 271.714844 192.03125 C 272.015625 192.324219 272.34375 192.589844 272.695312 192.824219 C 273.046875 193.058594 273.417969 193.257812 273.804688 193.425781 C 274.191406 193.59375 274.59375 193.726562 275.003906 193.820312 C 275.414062 193.914062 275.832031 193.972656 276.253906 193.992188 C 276.675781 194.015625 277.097656 193.996094 277.515625 193.941406 C 277.933594 193.882812 278.34375 193.792969 278.746094 193.664062 C 279.148438 193.53125 279.535156 193.367188 279.90625 193.167969 C 280.28125 192.96875 280.632812 192.738281 280.960938 192.472656 C 281.292969 192.210938 281.597656 191.921875 281.875 191.601562 C 282.152344 191.285156 282.398438 190.945312 282.617188 190.582031 C 282.832031 190.21875 283.015625 189.839844 283.164062 189.445312 C 283.3125 189.046875 283.421875 188.640625 283.496094 188.226562 C 283.570312 187.8125 283.609375 187.390625 283.609375 186.96875 C 283.605469 186.214844 283.488281 185.480469 283.246094 184.765625 C 283.007812 184.046875 282.664062 183.390625 282.210938 182.785156 C 281.761719 182.179688 281.222656 181.664062 280.605469 181.234375 C 279.984375 180.800781 279.316406 180.480469 278.589844 180.265625 C 278.210938 175.042969 277.390625 169.894531 276.121094 164.8125 C 274.851562 159.734375 273.15625 154.800781 271.035156 150.015625 C 268.914062 145.226562 266.394531 140.660156 263.484375 136.308594 C 260.574219 131.957031 257.3125 127.886719 253.695312 124.097656 L 275.542969 102.25 C 274.316406 101.257812 273.207031 100.148438 272.214844 98.921875 L 250.367188 120.769531 C 249.320312 119.769531 248.253906 118.796875 247.160156 117.847656 C 246.066406 116.898438 244.953125 115.976562 243.816406 115.082031 C 242.679688 114.1875 241.523438 113.316406 240.347656 112.476562 C 239.167969 111.636719 237.972656 110.824219 236.753906 110.042969 C 235.539062 109.257812 234.304688 108.503906 233.050781 107.78125 C 231.800781 107.054688 230.53125 106.363281 229.246094 105.699219 C 227.960938 105.035156 226.660156 104.402344 225.34375 103.796875 C 224.027344 103.195312 222.699219 102.625 221.355469 102.085938 C 220.011719 101.550781 218.65625 101.042969 217.289062 100.570312 C 215.925781 100.09375 214.546875 99.652344 213.160156 99.246094 C 211.769531 98.835938 210.375 98.460938 208.96875 98.121094 C 207.5625 97.78125 206.148438 97.472656 204.726562 97.195312 C 203.308594 96.921875 201.878906 96.683594 200.449219 96.476562 C 199.015625 96.269531 197.582031 96.097656 196.140625 95.960938 C 194.699219 95.824219 193.257812 95.71875 191.8125 95.652344 C 190.367188 95.582031 188.921875 95.546875 187.472656 95.546875 C 186.027344 95.546875 184.582031 95.582031 183.136719 95.652344 C 181.691406 95.71875 180.25 95.824219 178.808594 95.960938 C 177.367188 96.097656 175.933594 96.269531 174.5 96.476562 C 173.066406 96.683594 171.640625 96.921875 170.21875 97.195312 C 168.800781 97.472656 167.386719 97.78125 165.980469 98.121094 C 164.574219 98.460938 163.179688 98.835938 161.789062 99.246094 C 160.402344 99.652344 159.023438 100.09375 157.65625 100.570312 C 156.289062 101.042969 154.933594 101.550781 153.59375 102.085938 C 152.25 102.625 150.921875 103.195312 149.605469 103.796875 C 148.289062 104.402344 146.988281 105.035156 145.703125 105.699219 C 144.417969 106.363281 143.148438 107.054688 141.894531 107.78125 C 140.644531 108.503906 139.410156 109.257812 138.191406 110.042969 C 136.976562 110.824219 135.78125 111.636719 134.601562 112.476562 C 133.425781 113.316406 132.265625 114.1875 131.128906 115.082031 C 129.996094 115.976562 128.878906 116.898438 127.789062 117.847656 C 126.695312 118.796875 125.625 119.769531 124.582031 120.769531 L 102.734375 98.921875 C 101.78125 100.15625 100.6875 101.25 99.449219 102.203125 Z M 247.085938 249.886719 C 246.09375 250.832031 245.078125 251.75 244.042969 252.648438 C 243.007812 253.542969 241.949219 254.414062 240.871094 255.261719 C 239.792969 256.109375 238.695312 256.929688 237.582031 257.722656 C 236.464844 258.515625 235.328125 259.28125 234.175781 260.023438 C 233.023438 260.761719 231.851562 261.476562 230.664062 262.160156 C 229.476562 262.84375 228.273438 263.5 227.058594 264.125 C 225.839844 264.753906 224.605469 265.351562 223.359375 265.917969 C 222.113281 266.488281 220.851562 267.027344 219.582031 267.535156 C 218.308594 268.042969 217.023438 268.519531 215.730469 268.96875 C 214.433594 269.414062 213.128906 269.832031 211.816406 270.21875 C 210.5 270.601562 209.175781 270.957031 207.84375 271.277344 C 206.511719 271.601562 205.175781 271.890625 203.828125 272.148438 C 202.484375 272.410156 201.132812 272.636719 199.777344 272.828125 C 198.417969 273.023438 197.058594 273.1875 195.695312 273.316406 C 194.332031 273.445312 192.964844 273.542969 191.597656 273.605469 C 190.226562 273.671875 188.859375 273.703125 187.488281 273.703125 C 186.117188 273.703125 184.75 273.667969 183.378906 273.605469 C 182.011719 273.539062 180.644531 273.441406 179.28125 273.308594 C 177.917969 273.179688 176.558594 273.015625 175.199219 272.820312 C 173.84375 272.625 172.492188 272.398438 171.148438 272.136719 C 169.804688 271.878906 168.464844 271.585938 167.132812 271.261719 C 165.800781 270.9375 164.480469 270.585938 163.164062 270.199219 C 161.851562 269.8125 160.546875 269.394531 159.25 268.945312 C 157.957031 268.496094 156.671875 268.019531 155.398438 267.507812 C 154.128906 267 152.871094 266.460938 151.621094 265.890625 C 150.375 265.320312 149.144531 264.722656 147.925781 264.09375 C 146.710938 263.46875 145.507812 262.808594 144.320312 262.125 C 143.132812 261.441406 141.964844 260.726562 140.8125 259.984375 C 139.660156 259.246094 138.523438 258.476562 137.410156 257.683594 C 136.292969 256.886719 135.195312 256.066406 134.117188 255.21875 C 133.042969 254.375 131.984375 253.5 130.949219 252.605469 C 129.914062 251.707031 128.902344 250.785156 127.910156 249.839844 L 157.773438 220.023438 C 158.78125 220.9375 159.824219 221.800781 160.910156 222.621094 C 161.996094 223.4375 163.117188 224.203125 164.277344 224.917969 C 165.433594 225.632812 166.617188 226.289062 167.835938 226.894531 C 169.054688 227.5 170.296875 228.046875 171.566406 228.535156 C 172.832031 229.027344 174.121094 229.457031 175.429688 229.828125 C 176.734375 230.199219 178.058594 230.511719 179.394531 230.757812 C 180.730469 231.007812 182.074219 231.195312 183.429688 231.320312 C 184.78125 231.445312 186.136719 231.507812 187.496094 231.507812 C 188.855469 231.507812 190.214844 231.445312 191.566406 231.320312 C 192.921875 231.195312 194.265625 231.007812 195.601562 230.757812 C 196.9375 230.511719 198.257812 230.199219 199.566406 229.828125 C 200.875 229.457031 202.164062 229.027344 203.429688 228.535156 C 204.699219 228.046875 205.941406 227.5 207.160156 226.894531 C 208.375 226.289062 209.5625 225.632812 210.71875 224.917969 C 211.875 224.203125 212.996094 223.4375 214.082031 222.621094 C 215.167969 221.800781 216.214844 220.9375 217.222656 220.023438 Z M 187.730469 187.953125 C 187.589844 187.953125 187.496094 187.90625 187.355469 187.90625 C 187.261719 187.90625 187.167969 187.953125 187.027344 187.953125 C 186.257812 187.953125 185.496094 187.882812 184.738281 187.742188 C 183.984375 187.601562 183.246094 187.390625 182.527344 187.109375 C 181.8125 186.828125 181.125 186.484375 180.472656 186.078125 C 179.820312 185.671875 179.210938 185.207031 178.644531 184.683594 C 178.078125 184.164062 177.566406 183.59375 177.105469 182.976562 C 176.644531 182.359375 176.246094 181.707031 175.910156 181.015625 C 175.570312 180.324219 175.300781 179.605469 175.097656 178.863281 C 174.894531 178.121094 174.757812 177.367188 174.695312 176.601562 C 174.632812 175.832031 174.640625 175.066406 174.722656 174.300781 C 174.800781 173.535156 174.953125 172.785156 175.171875 172.046875 C 175.394531 171.308594 175.679688 170.597656 176.035156 169.914062 C 176.386719 169.230469 176.800781 168.585938 177.273438 167.976562 C 177.746094 167.371094 178.273438 166.8125 178.851562 166.304688 C 179.429688 165.796875 180.050781 165.347656 180.710938 164.953125 C 181.371094 164.5625 182.066406 164.234375 182.789062 163.96875 C 183.511719 163.707031 184.253906 163.511719 185.011719 163.386719 L 185.011719 157.996094 C 185.015625 157.683594 185.074219 157.386719 185.191406 157.097656 C 185.3125 156.8125 185.480469 156.558594 185.703125 156.339844 C 185.921875 156.121094 186.175781 155.949219 186.460938 155.832031 C 186.746094 155.710938 187.046875 155.652344 187.355469 155.652344 C 187.667969 155.648438 187.96875 155.707031 188.257812 155.824219 C 188.546875 155.941406 188.800781 156.109375 189.019531 156.332031 C 189.242188 156.550781 189.410156 156.804688 189.527344 157.09375 C 189.648438 157.382812 189.703125 157.683594 189.699219 157.996094 L 189.699219 163.480469 C 190.382812 163.632812 191.050781 163.839844 191.699219 164.101562 C 192.347656 164.367188 192.96875 164.683594 193.5625 165.050781 C 194.160156 165.421875 194.71875 165.839844 195.242188 166.304688 C 195.765625 166.769531 196.246094 167.273438 196.683594 167.820312 C 197.121094 168.363281 197.511719 168.945312 197.851562 169.554688 C 198.191406 170.167969 198.476562 170.804688 198.707031 171.464844 C 198.941406 172.125 199.113281 172.800781 199.230469 173.492188 C 199.347656 174.179688 199.40625 174.875 199.40625 175.578125 C 199.40625 175.886719 199.34375 176.1875 199.226562 176.472656 C 199.105469 176.757812 198.9375 177.011719 198.71875 177.230469 C 198.496094 177.453125 198.246094 177.621094 197.957031 177.742188 C 197.671875 177.859375 197.371094 177.917969 197.0625 177.921875 C 196.753906 177.914062 196.457031 177.851562 196.171875 177.734375 C 195.886719 177.613281 195.632812 177.441406 195.414062 177.222656 C 195.195312 177.003906 195.027344 176.753906 194.90625 176.46875 C 194.785156 176.183594 194.722656 175.886719 194.71875 175.578125 C 194.71875 175.070312 194.667969 174.570312 194.570312 174.078125 C 194.472656 173.582031 194.324219 173.101562 194.132812 172.632812 C 193.9375 172.167969 193.703125 171.726562 193.421875 171.304688 C 193.140625 170.886719 192.824219 170.496094 192.464844 170.140625 C 192.109375 169.78125 191.71875 169.464844 191.300781 169.183594 C 190.878906 168.902344 190.4375 168.667969 189.972656 168.472656 C 189.503906 168.28125 189.023438 168.132812 188.527344 168.035156 C 188.035156 167.9375 187.535156 167.886719 187.027344 167.886719 C 186.523438 167.886719 186.023438 167.9375 185.527344 168.035156 C 185.035156 168.132812 184.554688 168.28125 184.085938 168.472656 C 183.621094 168.667969 183.175781 168.902344 182.757812 169.183594 C 182.335938 169.464844 181.949219 169.78125 181.59375 170.140625 C 181.234375 170.496094 180.917969 170.886719 180.636719 171.304688 C 180.355469 171.726562 180.117188 172.167969 179.925781 172.632812 C 179.730469 173.101562 179.585938 173.582031 179.488281 174.078125 C 179.390625 174.570312 179.339844 175.070312 179.339844 175.578125 C 179.339844 176.082031 179.390625 176.582031 179.488281 177.078125 C 179.585938 177.570312 179.730469 178.050781 179.925781 178.519531 C 180.117188 178.984375 180.355469 179.429688 180.636719 179.847656 C 180.917969 180.269531 181.234375 180.65625 181.59375 181.011719 C 181.949219 181.371094 182.335938 181.6875 182.757812 181.96875 C 183.175781 182.25 183.621094 182.488281 184.085938 182.679688 C 184.554688 182.875 185.035156 183.019531 185.527344 183.117188 C 186.023438 183.214844 186.523438 183.265625 187.027344 183.265625 C 187.144531 183.269531 187.253906 183.300781 187.355469 183.359375 C 187.476562 183.304688 187.601562 183.273438 187.730469 183.265625 C 188.636719 183.265625 189.53125 183.351562 190.417969 183.519531 C 191.308594 183.683594 192.171875 183.929688 193.015625 184.257812 C 193.859375 184.585938 194.664062 184.984375 195.433594 185.460938 C 196.203125 185.933594 196.921875 186.476562 197.589844 187.082031 C 198.257812 187.691406 198.867188 188.355469 199.414062 189.074219 C 199.960938 189.792969 200.433594 190.558594 200.839844 191.363281 C 201.246094 192.171875 201.574219 193.007812 201.828125 193.878906 C 202.078125 194.746094 202.246094 195.628906 202.335938 196.527344 C 202.425781 197.429688 202.429688 198.328125 202.351562 199.226562 C 202.273438 200.128906 202.117188 201.015625 201.875 201.886719 C 201.632812 202.753906 201.316406 203.597656 200.917969 204.410156 C 200.523438 205.222656 200.054688 205.992188 199.519531 206.71875 C 198.980469 207.441406 198.378906 208.113281 197.71875 208.730469 C 197.058594 209.34375 196.34375 209.894531 195.582031 210.378906 C 194.820312 210.863281 194.019531 211.273438 193.179688 211.609375 C 192.339844 211.945312 191.476562 212.203125 190.59375 212.378906 L 190.59375 218.617188 C 190.589844 218.925781 190.53125 219.226562 190.410156 219.511719 C 190.292969 219.796875 190.121094 220.050781 189.902344 220.269531 C 189.683594 220.492188 189.429688 220.660156 189.144531 220.777344 C 188.855469 220.898438 188.558594 220.957031 188.246094 220.960938 C 187.9375 220.960938 187.636719 220.90625 187.347656 220.789062 C 187.058594 220.667969 186.804688 220.5 186.582031 220.28125 C 186.363281 220.058594 186.195312 219.804688 186.074219 219.515625 C 185.957031 219.226562 185.902344 218.925781 185.902344 218.617188 L 185.902344 212.472656 C 185.023438 212.367188 184.160156 212.179688 183.3125 211.914062 C 182.464844 211.648438 181.652344 211.3125 180.867188 210.898438 C 180.082031 210.484375 179.339844 210.007812 178.640625 209.460938 C 177.941406 208.914062 177.296875 208.308594 176.710938 207.644531 C 176.121094 206.980469 175.597656 206.269531 175.136719 205.511719 C 174.679688 204.753906 174.289062 203.957031 173.972656 203.128906 C 173.65625 202.300781 173.417969 201.449219 173.257812 200.578125 C 173.09375 199.707031 173.011719 198.828125 173.011719 197.941406 C 173.015625 197.628906 173.078125 197.332031 173.199219 197.046875 C 173.320312 196.765625 173.488281 196.511719 173.707031 196.292969 C 173.925781 196.074219 174.179688 195.90625 174.464844 195.785156 C 174.75 195.664062 175.046875 195.601562 175.355469 195.597656 C 175.664062 195.597656 175.964844 195.65625 176.25 195.777344 C 176.539062 195.894531 176.789062 196.066406 177.011719 196.285156 C 177.230469 196.503906 177.398438 196.757812 177.519531 197.042969 C 177.636719 197.332031 177.699219 197.628906 177.699219 197.941406 C 177.699219 198.597656 177.761719 199.25 177.886719 199.894531 C 178.011719 200.539062 178.203125 201.164062 178.453125 201.773438 C 178.703125 202.378906 179.007812 202.957031 179.371094 203.503906 C 179.738281 204.050781 180.152344 204.558594 180.613281 205.023438 C 181.078125 205.492188 181.582031 205.90625 182.128906 206.273438 C 182.671875 206.640625 183.25 206.949219 183.855469 207.203125 C 184.464844 207.453125 185.089844 207.644531 185.734375 207.777344 C 186.378906 207.90625 187.027344 207.972656 187.683594 207.972656 C 188.34375 207.972656 188.992188 207.910156 189.636719 207.785156 C 190.285156 207.660156 190.910156 207.46875 191.515625 207.21875 C 192.125 206.96875 192.703125 206.664062 193.25 206.300781 C 193.796875 205.933594 194.304688 205.519531 194.769531 205.058594 C 195.234375 204.59375 195.652344 204.089844 196.019531 203.542969 C 196.382812 203 196.695312 202.421875 196.945312 201.816406 C 197.199219 201.207031 197.390625 200.582031 197.519531 199.9375 C 197.652344 199.292969 197.714844 198.644531 197.71875 197.988281 C 197.71875 197.328125 197.65625 196.679688 197.53125 196.035156 C 197.402344 195.390625 197.214844 194.761719 196.964844 194.15625 C 196.714844 193.546875 196.40625 192.96875 196.042969 192.421875 C 195.679688 191.875 195.265625 191.367188 194.804688 190.902344 C 194.339844 190.4375 193.835938 190.019531 193.289062 189.652344 C 192.742188 189.289062 192.167969 188.976562 191.5625 188.726562 C 190.953125 188.472656 190.328125 188.28125 189.683594 188.152344 C 189.039062 188.019531 188.390625 187.957031 187.730469 187.953125 Z M 187.496094 100.234375 C 192.996094 100.234375 198.441406 100.753906 203.839844 101.796875 C 209.238281 102.835938 214.488281 104.378906 219.59375 106.421875 C 224.695312 108.464844 229.558594 110.972656 234.183594 113.945312 C 238.808594 116.921875 243.109375 120.304688 247.085938 124.097656 L 217.222656 153.917969 C 216.214844 153.003906 215.167969 152.136719 214.082031 151.320312 C 212.996094 150.5 211.875 149.734375 210.71875 149.023438 C 209.5625 148.308594 208.375 147.648438 207.160156 147.042969 C 205.941406 146.4375 204.699219 145.890625 203.429688 145.402344 C 202.164062 144.910156 200.875 144.480469 199.566406 144.109375 C 198.257812 143.738281 196.9375 143.429688 195.601562 143.179688 C 194.265625 142.929688 192.921875 142.742188 191.566406 142.617188 C 190.214844 142.492188 188.855469 142.429688 187.496094 142.429688 C 186.136719 142.429688 184.78125 142.492188 183.429688 142.617188 C 182.074219 142.742188 180.730469 142.929688 179.394531 143.179688 C 178.058594 143.429688 176.734375 143.738281 175.429688 144.109375 C 174.121094 144.480469 172.832031 144.910156 171.566406 145.402344 C 170.296875 145.890625 169.054688 146.4375 167.835938 147.042969 C 166.617188 147.648438 165.433594 148.308594 164.277344 149.023438 C 163.117188 149.734375 161.996094 150.5 160.910156 151.320312 C 159.824219 152.136719 158.78125 153.003906 157.773438 153.917969 L 127.910156 124.050781 C 129.894531 122.160156 131.960938 120.363281 134.117188 118.667969 C 136.273438 116.972656 138.503906 115.386719 140.808594 113.902344 C 143.117188 112.421875 145.488281 111.050781 147.925781 109.796875 C 150.363281 108.542969 152.855469 107.40625 155.402344 106.386719 C 157.949219 105.367188 160.539062 104.476562 163.167969 103.703125 C 165.800781 102.933594 168.460938 102.292969 171.15625 101.773438 C 173.847656 101.257812 176.558594 100.871094 179.289062 100.613281 C 182.019531 100.359375 184.753906 100.230469 187.496094 100.234375 Z M 187.496094 100.234375 " fill-opacity="1" fill-rule="nonzero"/></svg>