<svg width="33" height="31" viewBox="0 0 33 31" fill="none" xmlns="http://www.w3.org/2000/svg">
<path d="M19.8745 11.0093H1.53472C1.12771 11.0093 0.737361 11.171 0.449548 11.4587C0.161736 11.7465 2.98868e-05 12.1369 0 12.5439V24.6738C1.49431e-05 25.0808 0.161713 25.4712 0.449525 25.759C0.737337 26.0468 1.12769 26.2085 1.53472 26.2085H7.21408C7.43164 26.2085 7.64027 26.2949 7.79411 26.4488C7.94794 26.6026 8.03437 26.8112 8.03438 27.0288V29.8918C8.03438 30.0664 8.08493 30.2373 8.17995 30.3838C8.27496 30.5303 8.41036 30.6461 8.5698 30.7173C8.72923 30.7885 8.90588 30.8121 9.07839 30.7851C9.2509 30.758 9.4119 30.6817 9.54194 30.5651L14.0497 26.5251C14.2772 26.3212 14.5719 26.2084 14.8774 26.2084H19.8745C20.2815 26.2084 20.6718 26.0466 20.9596 25.7588C21.2474 25.471 21.4091 25.0807 21.4091 24.6737V12.5439C21.4091 12.1369 21.2474 11.7466 20.9596 11.4588C20.6718 11.171 20.2815 11.0093 19.8745 11.0093ZM10.7045 21.1674H4.67149C4.57007 21.1698 4.46918 21.152 4.37475 21.1149C4.28033 21.0778 4.19428 21.0222 4.12168 20.9513C4.04907 20.8804 3.99137 20.7958 3.95198 20.7023C3.91259 20.6088 3.89229 20.5084 3.89229 20.4069C3.89229 20.3055 3.91259 20.205 3.95198 20.1115C3.99137 20.018 4.04907 19.9334 4.12168 19.8625C4.19428 19.7917 4.28033 19.736 4.37475 19.6989C4.46918 19.6618 4.57007 19.644 4.67149 19.6465H10.7045C10.806 19.644 10.9069 19.6618 11.0013 19.6989C11.0957 19.736 11.1818 19.7917 11.2544 19.8625C11.327 19.9334 11.3847 20.018 11.4241 20.1115C11.4634 20.205 11.4837 20.3055 11.4837 20.4069C11.4837 20.5084 11.4634 20.6088 11.4241 20.7023C11.3847 20.7958 11.327 20.8804 11.2544 20.9513C11.1818 21.0222 11.0957 21.0778 11.0013 21.1149C10.9069 21.152 10.806 21.1698 10.7045 21.1674ZM16.7382 21.1674H14.3852C14.2838 21.1698 14.1829 21.152 14.0885 21.1149C13.9941 21.0778 13.908 21.0222 13.8354 20.9513C13.7628 20.8804 13.7051 20.7958 13.6657 20.7023C13.6263 20.6088 13.606 20.5084 13.606 20.4069C13.606 20.3055 13.6263 20.205 13.6657 20.1115C13.7051 20.018 13.7628 19.9334 13.8354 19.8625C13.908 19.7917 13.9941 19.736 14.0885 19.6989C14.1829 19.6618 14.2838 19.644 14.3852 19.6465H16.7382C16.9366 19.6513 17.1254 19.7335 17.264 19.8756C17.4027 20.0177 17.4803 20.2084 17.4803 20.4069C17.4803 20.6055 17.4027 20.7961 17.264 20.9382C17.1254 21.0803 16.9366 21.1625 16.7382 21.1674ZM16.7382 17.3144H4.67149C4.57007 17.3169 4.46918 17.2991 4.37475 17.262C4.28033 17.2248 4.19428 17.1692 4.12168 17.0984C4.04907 17.0275 3.99137 16.9428 3.95198 16.8493C3.91259 16.7559 3.89229 16.6554 3.89229 16.554C3.89229 16.4525 3.91259 16.3521 3.95198 16.2586C3.99137 16.1651 4.04907 16.0804 4.12168 16.0096C4.19428 15.9387 4.28033 15.8831 4.37475 15.846C4.46918 15.8089 4.57007 15.791 4.67149 15.7935H16.7382C16.9366 15.7984 17.1254 15.8806 17.264 16.0227C17.4027 16.1648 17.4803 16.3554 17.4803 16.554C17.4803 16.7525 17.4027 16.9432 17.264 17.0853C17.1254 17.2274 16.9366 17.3096 16.7382 17.3144Z" fill="white"/>
<path d="M31.4654 0H13.1256C12.9241 -1.35844e-10 12.7245 0.039697 12.5383 0.116825C12.3521 0.193952 12.1829 0.306999 12.0404 0.449512C11.8979 0.592024 11.7849 0.761211 11.7077 0.947411C11.6306 1.13361 11.5909 1.33318 11.5909 1.53472V9.48824H19.8746C20.6848 9.48921 21.4615 9.81148 22.0344 10.3844C22.6073 10.9572 22.9296 11.734 22.9306 12.5442V16.5786L26.2523 19.5556C26.3823 19.6722 26.5433 19.7486 26.7158 19.7756C26.8883 19.8026 27.065 19.7791 27.2244 19.7079C27.3839 19.6367 27.5193 19.5209 27.6143 19.3744C27.7093 19.2279 27.7599 19.057 27.7599 18.8824V16.0194C27.7599 15.9117 27.7811 15.805 27.8223 15.7055C27.8636 15.606 27.924 15.5155 28.0001 15.4394C28.0763 15.3632 28.1667 15.3028 28.2662 15.2615C28.3657 15.2203 28.4724 15.1991 28.5801 15.1991H31.4654C31.667 15.1991 31.8665 15.1594 32.0527 15.0823C32.2389 15.0051 32.4081 14.8921 32.5506 14.7496C32.6931 14.607 32.8062 14.4378 32.8833 14.2516C32.9604 14.0654 33.0001 13.8659 33.0001 13.6643V1.53472C33.0001 1.33318 32.9604 1.13361 32.8833 0.947411C32.8062 0.761211 32.6931 0.592024 32.5506 0.449512C32.4081 0.306999 32.2389 0.193952 32.0527 0.116825C31.8665 0.039697 31.667 -1.35844e-10 31.4654 0ZM28.3289 10.0874H24.3227C24.2213 10.0899 24.1204 10.0721 24.0259 10.035C23.9315 9.99785 23.8455 9.94223 23.7729 9.87137C23.7003 9.80051 23.6426 9.71584 23.6032 9.62235C23.5638 9.52886 23.5435 9.42843 23.5435 9.32698C23.5435 9.22552 23.5638 9.1251 23.6032 9.0316C23.6426 8.93811 23.7003 8.85345 23.7729 8.78259C23.8455 8.71173 23.9315 8.65611 24.0259 8.619C24.1204 8.58189 24.2213 8.56405 24.3227 8.56652H28.3289C28.4304 8.56405 28.5312 8.58189 28.6257 8.619C28.7201 8.65611 28.8061 8.71173 28.8787 8.78259C28.9514 8.85345 29.0091 8.93811 29.0484 9.0316C29.0878 9.1251 29.1081 9.22552 29.1081 9.32698C29.1081 9.42843 29.0878 9.52886 29.0484 9.62235C29.0091 9.71584 28.9514 9.80051 28.8787 9.87137C28.8061 9.94223 28.7201 9.99785 28.6257 10.035C28.5312 10.0721 28.4304 10.0899 28.3289 10.0874ZM28.3289 6.35057H16.2623C16.1608 6.35304 16.0599 6.33519 15.9655 6.29809C15.8711 6.26098 15.7851 6.20536 15.7125 6.1345C15.6398 6.06364 15.5821 5.97898 15.5428 5.88548C15.5034 5.79199 15.4831 5.69156 15.4831 5.59011C15.4831 5.48866 15.5034 5.38823 15.5428 5.29474C15.5821 5.20125 15.6398 5.11658 15.7125 5.04572C15.7851 4.97486 15.8711 4.91924 15.9655 4.88214C16.0599 4.84503 16.1608 4.82719 16.2623 4.82965H28.3289C28.4304 4.82719 28.5312 4.84503 28.6257 4.88214C28.7201 4.91924 28.8061 4.97486 28.8787 5.04572C28.9514 5.11658 29.0091 5.20125 29.0484 5.29474C29.0878 5.38823 29.1081 5.48866 29.1081 5.59011C29.1081 5.69156 29.0878 5.79199 29.0484 5.88548C29.0091 5.97898 28.9514 6.06364 28.8787 6.1345C28.8061 6.20536 28.7201 6.26098 28.6257 6.29809C28.5312 6.33519 28.4304 6.35304 28.3289 6.35057Z" fill="white"/>
</svg>
