<svg width="24" height="24" viewBox="0 0 24 24" fill="none" xmlns="http://www.w3.org/2000/svg">
<g id="weui:video-call-outlined">
<path id="Vector" fill-rule="evenodd" clip-rule="evenodd" d="M3.2 6.7V17.3H15.8V6.7H3.2ZM3 5.5H16C16.2652 5.5 16.5196 5.60536 16.7071 5.79289C16.8946 5.98043 17 6.23478 17 6.5V17.5C17 17.7652 16.8946 18.0196 16.7071 18.2071C16.5196 18.3946 16.2652 18.5 16 18.5H3C2.73478 18.5 2.48043 18.3946 2.29289 18.2071C2.10536 18.0196 2 17.7652 2 17.5V6.5C2 6.23478 2.10536 5.98043 2.29289 5.79289C2.48043 5.60536 2.73478 5.5 3 5.5ZM19.2 13.423L21.8 15.503V8.497L19.2 10.577V13.423ZM18 10L21.375 7.3C21.522 7.18228 21.6993 7.10848 21.8864 7.08709C22.0736 7.0657 22.2629 7.0976 22.4327 7.1791C22.6025 7.2606 22.7459 7.3884 22.8462 7.54779C22.9466 7.70717 22.9999 7.89165 23 8.08V15.92C22.9999 16.1083 22.9466 16.2928 22.8462 16.4522C22.7459 16.6116 22.6025 16.7394 22.4327 16.8209C22.2629 16.9024 22.0736 16.9343 21.8864 16.9129C21.6993 16.8915 21.522 16.8177 21.375 16.7L18 14V10Z" fill="black"/>
</g>
</svg>
