<svg width="25" height="24" viewBox="0 0 25 24" fill="none" xmlns="http://www.w3.org/2000/svg">
<g id="solar:phone-outline">
<path id="Vector" fill-rule="evenodd" clip-rule="evenodd" d="M6.23303 2.0433C7.45003 0.833297 9.45403 1.0483 10.473 2.4103L11.735 4.0943C12.565 5.2023 12.491 6.7503 11.506 7.7293L11.268 7.9673C11.241 8.06721 11.2383 8.17211 11.26 8.2733C11.323 8.6813 11.664 9.5453 13.092 10.9653C14.52 12.3853 15.39 12.7253 15.804 12.7893C15.9083 12.8103 16.0161 12.8072 16.119 12.7803L16.527 12.3743C17.403 11.5043 18.747 11.3413 19.831 11.9303L21.741 12.9703C23.378 13.8583 23.791 16.0823 22.451 17.4153L21.03 18.8273C20.582 19.2723 19.98 19.6433 19.246 19.7123C17.436 19.8813 13.219 19.6653 8.78603 15.2583C4.64903 11.1443 3.85503 7.5563 3.75403 5.7883C3.70403 4.8943 4.12603 4.1383 4.66403 3.6043L6.23303 2.0433ZM9.27303 3.3093C8.76603 2.6323 7.82203 2.5783 7.29003 3.1073L5.72003 4.6673C5.39003 4.9953 5.23203 5.3573 5.25203 5.7033C5.33203 7.1083 5.97203 10.3453 9.84403 14.1953C13.906 18.2333 17.657 18.3543 19.107 18.2183C19.403 18.1913 19.697 18.0373 19.972 17.7643L21.392 16.3513C21.97 15.7773 21.843 14.7313 21.025 14.2873L19.115 13.2483C18.587 12.9623 17.969 13.0563 17.585 13.4383L17.13 13.8913L16.6 13.3593C17.13 13.8913 17.129 13.8923 17.128 13.8923L17.127 13.8943L17.124 13.8973L17.117 13.9033L17.102 13.9173C17.0598 13.9565 17.0143 13.9919 16.966 14.0233C16.886 14.0763 16.78 14.1353 16.647 14.1843C16.377 14.2853 16.019 14.3393 15.577 14.2713C14.71 14.1383 13.561 13.5473 12.034 12.0293C10.508 10.5113 9.91203 9.3693 9.77803 8.5033C9.70903 8.0613 9.76403 7.7033 9.86603 7.4333C9.92216 7.28137 10.0025 7.13953 10.104 7.0133L10.136 6.9783L10.15 6.9633L10.156 6.9573L10.159 6.9543L10.161 6.9523L10.449 6.6663C10.877 6.2393 10.937 5.5323 10.534 4.9933L9.27303 3.3093Z" fill="black"/>
</g>
</svg>
