<svg width="29" height="28" viewBox="0 0 29 28" fill="none" xmlns="http://www.w3.org/2000/svg">
<g id="Group 345">
<path id="Vector" d="M11.9647 0.202049C11.6919 0.40407 11.6919 0.73596 11.6488 13.8673C11.6058 28.7158 11.5771 27.9943 12.4815 27.9943C13.386 27.9943 13.3573 28.7158 13.3142 13.8673C13.2711 0.73596 13.2711 0.40407 12.9984 0.202049C12.8404 0.0866108 12.6107 3.05176e-05 12.4815 3.05176e-05C12.3523 3.05176e-05 12.1226 0.0866108 11.9647 0.202049Z" fill="white"/>
<path id="Vector_2" d="M14.7642 0.245474C14.592 0.433064 14.5632 2.77073 14.5202 13.853L14.4915 27.2296L14.7929 27.6048C15.1375 28.0521 15.64 28.1098 15.9702 27.7347C16.1999 27.4894 16.2142 26.3205 16.2142 13.9684C16.2142 1.08242 16.1999 0.461924 15.9558 0.245474C15.6113 -0.0719872 15.0083 -0.0719872 14.7642 0.245474Z" fill="white"/>
<path id="Vector_3" d="M9.03597 1.00996C8.7632 1.28413 8.74884 1.48615 8.74884 4.25672C8.74884 7.53233 8.67706 7.89308 7.88745 8.29712C7.65775 8.41256 7.15527 8.51358 6.75329 8.51358C5.83447 8.51358 5.34635 8.70117 5.13101 9.1485C5.0018 9.4371 5.01615 9.5814 5.21714 9.88443C5.44685 10.2307 5.51863 10.2452 6.82507 10.2452C8.74884 10.2452 9.52409 9.81228 10.1701 8.36927C10.4429 7.77764 10.4716 7.43132 10.4716 4.44431C10.4716 1.22641 10.4716 1.16869 10.1558 0.952242C9.72508 0.649211 9.38053 0.663641 9.03597 1.00996Z" fill="white"/>
<path id="Vector_4" d="M17.7216 1.08258C16.8315 1.96281 17.8796 3.24708 18.9132 2.51115C19.5593 2.06382 19.1429 0.721827 18.3677 0.721827C18.1954 0.721827 17.9083 0.880557 17.7216 1.08258Z" fill="white"/>
<path id="Vector_5" d="M6.16479 2.45296C5.92073 2.69827 5.87766 2.92915 5.87766 3.95368C5.87766 5.09365 5.84894 5.19466 5.50439 5.46883C5.01627 5.85844 4.9732 5.85844 4.39894 5.33896C3.59497 4.63189 2.86279 4.80505 2.86279 5.71414C2.86279 6.24805 3.39398 6.96955 4.02567 7.28701C4.80092 7.70549 6.03558 7.5179 6.71033 6.88297C7.39945 6.23362 7.60044 5.5987 7.60044 4.05469C7.60044 2.72713 7.57172 2.59726 7.28459 2.39524C6.8539 2.09221 6.50934 2.10664 6.16479 2.45296Z" fill="white"/>
<path id="Vector_6" d="M19.9901 3.01578C19.0138 3.34767 18.4826 3.76615 17.9227 4.64638C17.492 5.31016 17.4346 5.55547 17.3915 6.50785C17.3341 7.46023 17.3772 7.70554 17.7074 8.32603C18.1955 9.30727 19.0712 10.0432 19.9757 10.2308C20.3633 10.3174 21.9856 10.3895 23.5792 10.3895C26.7376 10.3895 27.0965 10.3174 27.3262 9.62474C27.4411 9.29284 27.4124 9.1774 27.1539 8.90323C26.8381 8.6002 26.7233 8.58577 23.7084 8.55691C22 8.54248 20.4495 8.48476 20.2772 8.44147C20.0906 8.39818 19.746 8.09515 19.5163 7.76326C18.942 6.98404 18.942 6.30583 19.5019 5.52661C20.0188 4.80511 20.593 4.5598 21.5406 4.64638C22.3589 4.73296 22.8757 5.137 23.4643 6.16153C23.8807 6.8686 24.2683 7.04176 24.7564 6.7243C25.2876 6.37798 25.3307 5.98837 24.9 5.12257C24.0099 3.27552 21.8851 2.36643 19.9901 3.01578Z" fill="white"/>
<path id="Vector_7" d="M20.5211 5.91616C19.9038 6.53665 20.3488 7.54675 21.2389 7.54675C22.1578 7.54675 22.5597 6.56551 21.9137 5.94502C21.4974 5.55541 20.8944 5.54098 20.5211 5.91616Z" fill="white"/>
<path id="Vector_8" d="M1.28341 8.80232C0.910145 9.1775 0.924502 9.72584 1.31213 10.101C1.95817 10.7071 3.00619 10.2742 3.00619 9.39395C3.00619 8.6003 1.87203 8.21068 1.28341 8.80232Z" fill="white"/>
<path id="Vector_9" d="M0.450953 11.7747C0.0633278 12.0489 0.0346148 12.6983 0.393527 13.0302C0.623231 13.2466 1.11135 13.2755 4.31285 13.2755C6.32276 13.2755 8.20346 13.3332 8.49059 13.4053C8.77772 13.4775 9.26584 13.7372 9.56733 13.9825C10.1559 14.4732 10.6154 14.5453 10.9599 14.199C11.649 13.5208 10.7589 12.1932 9.32327 11.7747C8.20346 11.4428 0.924718 11.4284 0.450953 11.7747Z" fill="white"/>
<path id="Vector_10" d="M18.4827 11.775C17.5638 12.0636 16.645 12.9294 16.645 13.5355C16.645 14.0549 16.9609 14.4301 17.4203 14.4301C17.6069 14.4301 18.052 14.1848 18.4396 13.8818L19.1287 13.3479L23.3495 13.2757C27.3263 13.2036 27.599 13.1891 27.7857 12.9294C28.0584 12.5398 28.0441 12.179 27.6995 11.8327C27.4267 11.5585 27.2258 11.5441 23.2921 11.5585C20.1049 11.5585 18.9995 11.6163 18.4827 11.775Z" fill="white"/>
<path id="Vector_11" d="M0.70927 14.5889C0.278575 14.762 0.13501 14.9641 0.13501 15.4547C0.13501 16.2483 0.37907 16.3061 3.66671 16.3061C5.31771 16.3061 6.89692 16.3782 7.16969 16.4504C7.45682 16.5225 7.90188 16.8255 8.17465 17.0997L8.67713 17.6192L8.74891 22.3089C8.82069 26.7534 8.83505 27.0131 9.09346 27.2152C9.45238 27.4749 9.75386 27.4749 10.1558 27.1863C10.4717 26.9698 10.4717 26.9554 10.4717 22.2512C10.4717 17.6048 10.4573 17.5182 10.1271 16.7967C9.68208 15.8299 8.77762 15.0651 7.6291 14.7188C6.83949 14.4734 6.3083 14.4302 3.88206 14.4446C2.33155 14.4446 0.910261 14.5167 0.70927 14.5889Z" fill="white"/>
<path id="Vector_12" d="M20.6935 14.5889C19.2865 14.863 18.2672 15.6711 17.6786 16.9842C17.4633 17.4604 17.4346 18.1386 17.3915 22.078C17.3484 26.5513 17.3484 26.6379 17.6499 27.0275C18.0088 27.4893 18.5113 27.5326 18.8558 27.143C19.0855 26.8832 19.1143 26.4215 19.143 22.4099C19.186 16.0896 18.9994 16.306 24.3113 16.306C26.0628 16.306 27.5559 16.2483 27.642 16.1906C27.9291 16.003 28.1445 15.4402 28.0584 15.1372C27.8717 14.5456 27.197 14.4301 24.1534 14.4445C22.5885 14.459 21.038 14.5167 20.6935 14.5889Z" fill="white"/>
<path id="Vector_13" d="M1.16869 17.9365C0.781062 18.3406 0.766705 18.7735 1.11126 19.0909C1.32661 19.293 1.68552 19.3363 2.8484 19.3363C4.55682 19.3363 5.15979 19.5383 5.59049 20.2309C5.84891 20.6638 5.87762 20.9524 5.87762 23.1313C5.87762 25.5123 5.87762 25.5556 6.23653 25.9019C6.65287 26.3348 6.73901 26.3492 7.22713 25.9596L7.6004 25.671V22.9582C7.6004 20.3464 7.58604 20.2309 7.22713 19.5094C6.5093 18.0664 5.50435 17.6046 3.0781 17.6046C1.58503 17.6046 1.45582 17.6335 1.16869 17.9365Z" fill="white"/>
<path id="Vector_14" d="M22.3158 17.9509C21.9282 18.1385 21.4257 18.4704 21.2104 18.7013C20.4638 19.5093 20.3777 19.9422 20.3777 22.987C20.3777 25.5122 20.4064 25.8153 20.6361 26.0173C20.9807 26.3347 21.2678 26.3203 21.6554 26.0029C21.9425 25.772 21.9713 25.6132 22 23.2323C22.043 19.5526 22.2153 19.3362 25.2302 19.3362C26.8668 19.3362 26.9817 19.3218 27.1827 19.0187C27.4842 18.5858 27.4698 18.2395 27.1252 17.8932C26.8668 17.6334 26.6515 17.6046 24.9431 17.6046C23.2346 17.6046 22.9619 17.6479 22.3158 17.9509Z" fill="white"/>
<path id="Vector_15" d="M3.20741 21.7172C2.80543 22.1212 2.76236 22.6551 3.12127 23.0591C3.58068 23.6219 4.44207 23.4776 4.7292 22.8138C4.85841 22.4675 4.85841 22.3088 4.67177 21.948C4.54257 21.7027 4.35593 21.5007 4.25544 21.4863C4.1693 21.4863 3.96831 21.4574 3.81038 21.4286C3.66682 21.3997 3.39405 21.5296 3.20741 21.7172Z" fill="white"/>
<path id="Vector_16" d="M23.3351 21.8178C23.0049 22.294 23.0623 22.7702 23.4786 23.1598C23.9811 23.6216 24.1821 23.6072 24.7133 23.0877C25.0578 22.7269 25.1296 22.5682 25.0435 22.2507C24.8999 21.6591 24.6989 21.5004 24.096 21.5004C23.694 21.5004 23.493 21.587 23.3351 21.8178Z" fill="white"/>
</g>
</svg>
