<svg width="35" height="34" viewBox="0 0 35 34" fill="none" xmlns="http://www.w3.org/2000/svg">
<path d="M14.4238 0.813671L14.4238 0.813677C10.1884 1.34727 6.69899 4.17562 5.37791 8.13888L5.37788 8.13895C4.96422 9.3866 4.87731 9.97634 4.87065 11.5213L4.87065 11.5215C4.87065 12.2412 4.87889 12.6742 4.90832 12.9349C4.923 13.0649 4.9434 13.157 4.97335 13.2216C5.00422 13.2882 5.04607 13.3271 5.1007 13.3474C5.1179 13.3551 5.13597 13.3558 5.15051 13.3546C5.16667 13.3534 5.1838 13.3495 5.20095 13.3442C5.2353 13.3335 5.27591 13.3154 5.3199 13.2923C5.40826 13.246 5.51664 13.1765 5.62741 13.0959L5.62809 13.0954C6.10928 12.7329 6.46872 12.5439 6.90558 12.4265C7.41478 12.296 8.17543 12.3092 8.6843 12.4657C8.88702 12.5288 8.99568 12.57 9.09437 12.6432C9.19434 12.7174 9.2866 12.8264 9.45018 13.0333C9.77519 13.4446 11.347 15.5043 12.838 17.466C13.5834 18.4468 14.3084 19.4028 14.8471 20.1156C15.1164 20.4721 15.3392 20.7677 15.4945 20.9752C15.5074 20.9925 15.5199 21.0091 15.5319 21.0251C15.506 21.0048 15.4785 20.983 15.4493 20.9599C15.2178 20.7768 14.883 20.5095 14.4696 20.1784C13.6429 19.516 12.5024 18.598 11.2474 17.5853C9.98891 16.5692 8.83003 15.6395 7.97494 14.9587C7.54741 14.6184 7.19574 14.3402 6.9455 14.1446C6.82041 14.0468 6.72052 13.9695 6.64912 13.9154C6.61345 13.8883 6.58467 13.8669 6.56331 13.8515C6.55266 13.8438 6.54357 13.8375 6.53626 13.8326C6.53024 13.8286 6.52292 13.8238 6.5164 13.8207M14.4238 0.813671L6.49448 13.8656M14.4238 0.813671C14.7999 0.766665 15.4075 0.760172 16.0208 0.785105C16.6343 0.810043 17.2582 0.866615 17.667 0.947033M14.4238 0.813671L6.16909 14.0914M6.5164 13.8207C6.51607 13.8205 6.51575 13.8204 6.51544 13.8202L6.49448 13.8656M6.5164 13.8207C6.51655 13.8208 6.51669 13.8208 6.51684 13.8209L6.49448 13.8656M6.5164 13.8207C6.45524 13.7901 6.40119 13.7712 6.34725 13.7769C6.29186 13.7828 6.24704 13.8135 6.20158 13.8554L6.20011 13.8568L6.20014 13.8568C6.16407 13.8929 6.13857 13.9382 6.12477 13.9816C6.11159 14.023 6.1063 14.0718 6.12313 14.1111M6.49448 13.8656C6.37495 13.8059 6.32183 13.8125 6.2355 13.8922C6.17573 13.952 6.14917 14.0449 6.16909 14.0914M6.12313 14.1111C6.12289 14.1105 6.12265 14.11 6.12242 14.1094L6.16909 14.0914M6.12313 14.1111L6.16909 14.0914M6.12313 14.1111C6.12637 14.1187 6.13083 14.1247 6.13294 14.1274C6.136 14.1314 6.13955 14.1355 6.14318 14.1395C6.1505 14.1475 6.16021 14.1572 6.17181 14.1683C6.19513 14.1906 6.22824 14.2206 6.27015 14.2575C6.35411 14.3315 6.47501 14.4346 6.62741 14.5625C6.93229 14.8184 7.36421 15.1743 7.88093 15.5965C8.91443 16.4408 10.2877 17.5503 11.6636 18.6543C13.0395 19.7584 14.4182 20.8571 15.4625 21.6798C15.9846 22.0912 16.4233 22.4336 16.7363 22.6733C16.8928 22.7931 17.0181 22.8875 17.1068 22.952C17.1511 22.9841 17.1868 23.0092 17.2128 23.0264C17.2258 23.0349 17.2371 23.042 17.2462 23.0471C17.2507 23.0496 17.2556 23.0522 17.2604 23.0542L17.2606 23.0543C17.2636 23.0555 17.2735 23.0598 17.2855 23.0598C17.2996 23.0598 17.3117 23.0552 17.3202 23.0511C17.3292 23.0467 17.3379 23.0409 17.3462 23.0347C17.3626 23.0222 17.3816 23.0044 17.403 22.9819C17.4461 22.9367 17.5043 22.8674 17.5809 22.7696C17.7343 22.5735 17.965 22.2585 18.3033 21.782C18.98 20.8287 20.0892 19.2263 21.8755 16.6299L21.8755 16.6299L26.2783 10.2217L26.2877 10.208L26.287 10.1914L26.2738 9.85966C26.2602 9.45342 26.102 8.81338 25.8743 8.14683C25.6462 7.47903 25.3461 6.77871 25.0453 6.25065L25.0453 6.25054C23.4709 3.50209 20.7626 1.55414 17.667 0.947033M17.667 0.947033L17.6574 0.996098L17.667 0.947039C17.667 0.947039 17.667 0.947033 17.667 0.947033ZM15.0668 1.41681C15.0733 1.42696 15.0806 1.43804 15.0885 1.44994C15.1287 1.51065 15.1847 1.59137 15.2474 1.67714L15.2478 1.67782C15.858 2.54284 16.5106 4.30424 17.1149 6.72814L17.1149 6.72819C17.3541 7.6918 17.7795 9.78525 17.8597 10.3992C17.8729 10.4952 17.8861 10.5823 17.8975 10.6451C17.9004 10.6613 17.9032 10.6756 17.9058 10.6879C17.9312 10.6748 17.9652 10.657 18.0059 10.6356C18.0971 10.5875 18.2214 10.5212 18.3574 10.4482C18.3575 10.4482 18.3575 10.4482 18.3576 10.4481L15.0668 1.41681ZM15.0668 1.41681C15.0684 1.417 15.0701 1.41719 15.0718 1.4174C15.1298 1.42447 15.2109 1.43793 15.3013 1.45526C15.4823 1.48998 15.696 1.53935 15.8294 1.58165L15.8445 1.53399L15.829 1.58154C16.6156 1.83718 17.4323 2.39577 18.2321 3.23528L18.2323 3.2355C19.315 4.35779 20.2214 5.95772 20.8239 7.77187C20.9054 8.01949 20.9742 8.21731 21.0349 8.3715C21.0954 8.52507 21.1489 8.63816 21.2001 8.71462C21.2502 8.78935 21.306 8.8408 21.3748 8.84726C21.4432 8.8537 21.5035 8.81344 21.557 8.76171L21.5576 8.76114C21.5607 8.75804 21.5639 8.75491 21.5671 8.75172C21.5913 8.72795 21.6185 8.70124 21.6334 8.6645C21.6511 8.62094 21.6503 8.5697 21.6369 8.49902C21.6119 8.36662 21.5351 8.13178 21.3849 7.67251C21.3759 7.64514 21.3667 7.61697 21.3572 7.58798C20.4715 4.85104 18.905 2.64798 17.0258 1.51773C16.9325 1.46151 16.8642 1.41797 16.8214 1.3857C16.8287 1.38604 16.8368 1.38653 16.8457 1.3872C16.8863 1.39026 16.9389 1.39665 17.0047 1.40643C17.1363 1.42598 17.3176 1.45859 17.555 1.5034C19.6168 1.90654 21.3278 2.82469 22.8549 4.3452C23.9857 5.48262 24.6391 6.4795 25.1943 7.92032L25.1945 7.92073C25.3065 8.20402 25.4371 8.61557 25.534 8.96252C25.5824 9.13593 25.6221 9.29235 25.6469 9.40788C25.6592 9.46583 25.6676 9.51239 25.6715 9.54526C25.6718 9.54741 25.672 9.54948 25.6722 9.55146C25.6592 9.54925 25.6436 9.54609 25.6256 9.54198C25.5695 9.52916 25.4949 9.50811 25.4166 9.48201C25.4164 9.48196 25.4163 9.48192 25.4162 9.48187L25.4003 9.5293L15.0668 1.41681ZM11.3455 2.40956L11.3453 2.40981C9.61879 4.27682 8.73505 7.75958 9.04114 11.4393L9.04114 11.4393L9.08773 11.9983L8.87598 11.9195L8.87437 11.9189L8.87436 11.919C8.78994 11.8908 8.63986 11.8621 8.46787 11.838C8.29474 11.8138 8.09578 11.7937 7.91166 11.7837L7.91098 11.7836C7.09237 11.7501 6.57874 11.8648 5.87351 12.2476M11.3455 2.40956L5.37886 12.5008C5.39455 12.5008 5.40533 12.5084 5.41052 12.5134C5.41531 12.518 5.4174 12.5222 5.41778 12.523C5.41807 12.5235 5.41817 12.5238 5.41814 12.5237C5.41807 12.5234 5.41747 12.5217 5.41658 12.5177C5.41485 12.51 5.41308 12.4986 5.41138 12.4834M11.3455 2.40956C11.4445 2.30401 11.5263 2.20896 11.579 2.14089C11.5792 2.14071 11.5793 2.14051 11.5794 2.14033C11.5439 2.15445 11.5016 2.17279 11.4536 2.19482C11.3312 2.25101 11.1747 2.33 11.0046 2.42064C10.6644 2.60191 10.2725 2.82849 9.99521 3.01C7.55646 4.63586 5.94409 7.16026 5.50132 10.035L5.4519 10.0273L5.50133 10.0349C5.4587 10.3136 5.42387 10.9415 5.40809 11.5021C5.40021 11.7819 5.39712 12.0436 5.40011 12.2351C5.40161 12.331 5.40462 12.4083 5.4092 12.4612C5.40991 12.4693 5.41064 12.4767 5.41138 12.4834M11.3455 2.40956L5.36949 12.5019M5.87351 12.2476C5.87333 12.2477 5.87315 12.2478 5.87297 12.2479L5.89683 12.2918L5.87403 12.2473C5.87386 12.2474 5.87368 12.2475 5.87351 12.2476ZM5.87351 12.2476C5.81014 12.28 5.74957 12.3113 5.69355 12.3401C5.6289 12.3735 5.57033 12.4037 5.52053 12.429C5.47571 12.4518 5.43867 12.4704 5.41138 12.4834M5.41138 12.4834C5.4104 12.4838 5.40944 12.4843 5.40848 12.4848C5.39464 12.4913 5.38405 12.4961 5.37665 12.4991C5.3729 12.5007 5.37066 12.5015 5.36959 12.5018C5.36956 12.5018 5.36952 12.5018 5.36949 12.5019M5.36949 12.5019C5.36898 12.502 5.36872 12.5021 5.3687 12.5021L5.36949 12.5019ZM17.4382 11.3688V11.7738C17.4382 11.9996 17.3785 13.8789 17.2988 15.9508C17.1859 18.9656 17.1726 19.7426 17.239 19.8223C17.3386 19.9418 17.4648 19.9484 17.5578 19.8355M17.4382 11.3688L17.4212 11.4158L17.3882 11.4038M17.4382 11.3688H17.3882V11.4038M17.4382 11.3688L17.1261 11.2559L17.1097 11.3031M17.3882 11.4038V11.7738C17.3882 11.9984 17.3285 13.8764 17.2488 15.9489L17.2488 15.9489C17.1924 17.4562 17.1608 18.4047 17.1517 18.9864C17.1471 19.2771 17.1481 19.4773 17.1545 19.6101C17.1577 19.6764 17.1623 19.7273 17.1686 19.7649C17.1717 19.7837 17.1754 19.8002 17.18 19.8143C17.1843 19.8277 17.1906 19.8422 17.2006 19.8543C17.2564 19.9212 17.3249 19.9627 17.3986 19.966C17.4735 19.9694 17.5424 19.9329 17.5964 19.8673M17.3882 11.4038L17.1097 11.3031M17.5964 19.8673C17.5962 19.8676 17.5959 19.8678 17.5957 19.8681L17.5578 19.8355M17.5964 19.8673L17.5578 19.8355M17.5964 19.8673C17.6015 19.8611 17.6044 19.8548 17.6057 19.8516C17.6074 19.8476 17.6087 19.8436 17.6097 19.8401C17.6117 19.8332 17.6134 19.8251 17.615 19.8166C17.6181 19.7994 17.6213 19.7762 17.6245 19.7479C17.631 19.691 17.638 19.6101 17.6456 19.5071C17.6608 19.301 17.6782 19.0044 17.6973 18.6303C17.7355 17.8821 17.7804 16.8226 17.8269 15.5542V15.5542L17.9787 11.3684M17.5578 19.8355C17.5976 19.7891 17.6839 18.0891 17.7769 15.5523L17.9296 11.3422M17.9787 11.3684L17.9589 11.3827L17.9296 11.3422M17.9787 11.3684L18.2711 11.1569L18.2713 11.1568C18.8788 10.7126 19.4916 10.5359 20.3249 10.5687M17.9787 11.3684L17.9796 11.344L17.9296 11.3422M17.9296 11.3422L20.3249 10.5687M20.3249 10.5687C20.654 10.5819 21.0537 10.6478 21.2272 10.7055C21.3126 10.7351 21.3894 10.7646 21.4445 10.788C21.4654 10.7969 21.4826 10.8048 21.4957 10.8112C21.4879 10.8332 21.4764 10.8648 21.4613 10.9056C21.4306 10.9892 21.3856 11.1106 21.3281 11.2645C21.2133 11.5724 21.0492 12.0101 20.8521 12.5345C20.458 13.5834 19.9319 14.979 19.4044 16.3755C18.8769 17.7721 18.3479 19.1698 17.948 20.2228C17.748 20.7493 17.5802 21.1896 17.4611 21.5006C17.4015 21.6561 17.354 21.7791 17.3208 21.8644C17.3164 21.8757 17.3122 21.8864 17.3083 21.8963M20.3249 10.5687L17.3083 21.8963M17.1097 11.3031C16.936 11.2454 16.5299 11.1795 16.2001 11.1597L16.1997 11.1597C15.9515 11.1431 15.782 11.14 15.6293 11.1546C15.477 11.1691 15.3395 11.2013 15.1552 11.2572L17.1097 11.3031ZM17.3083 21.8963C17.2838 21.8352 17.2505 21.7479 17.2091 21.6366C17.1175 21.3903 16.9873 21.0282 16.828 20.5776C16.5093 19.6763 16.0744 18.4214 15.5996 17.0303C14.9754 15.1942 14.5505 13.9246 14.2876 13.1049C14.156 12.695 14.0652 12.3982 14.0102 12.1996C13.9826 12.1001 13.9643 12.0263 13.9543 11.9755C13.9493 11.95 13.9467 11.9316 13.9459 11.9195C13.9457 11.9167 13.9456 11.9145 13.9456 11.9129C13.9687 11.878 14.0207 11.8294 14.0998 11.7718C14.1816 11.7123 14.2868 11.6472 14.4043 11.5827C14.6394 11.4537 14.9201 11.329 15.1551 11.2572L17.3083 21.8963ZM14.0647 11.1139L14.0652 11.1137C14.8532 10.6287 16.0292 10.4403 16.9128 10.6695C17.0279 10.6991 17.1359 10.722 17.217 10.735C17.2578 10.7415 17.2906 10.7454 17.3136 10.7465C17.3142 10.7465 17.3147 10.7465 17.3152 10.7465C17.3152 10.7361 17.3148 10.7231 17.3139 10.7072C17.311 10.6588 17.3037 10.5899 17.2924 10.503C17.2697 10.3296 17.2312 10.088 17.1815 9.80354C17.082 9.23483 16.9377 8.49672 16.7851 7.79342C16.47 6.35422 16.0871 5.02007 15.6946 3.95014C15.3012 2.87776 14.9005 2.07788 14.5527 1.70074C14.4106 1.54872 14.3038 1.47346 14.2153 1.45605C14.1343 1.44009 14.0561 1.47111 13.9623 1.57427L13.9616 1.57502C13.8513 1.69146 13.7484 1.92106 13.6598 2.25167C13.5717 2.57996 13.4997 3.00015 13.4463 3.49009C13.3395 4.46977 13.308 5.72385 13.371 7.06993L13.371 7.06996C13.4108 7.93224 13.4904 8.97228 13.5725 9.8083C13.6136 10.2263 13.6552 10.5929 13.6927 10.8604C13.7115 10.9943 13.7292 11.1027 13.7451 11.1801C13.7531 11.2189 13.7604 11.2488 13.7669 11.27C13.7675 11.2719 13.7681 11.2737 13.7687 11.2754C13.7843 11.2695 13.8053 11.2602 13.831 11.2475C13.8929 11.217 13.976 11.1698 14.0647 11.1139ZM13.0389 10.1326L13.0389 10.1325L13.1882 2.05196L13.1402 2.03822C13.1402 2.03802 13.1403 2.03781 13.1403 2.0376C13.1735 1.92166 13.2032 1.81603 13.2238 1.73862C13.2278 1.72334 13.2315 1.70925 13.2348 1.69646C13.2231 1.70179 13.2104 1.70779 13.1965 1.71441C13.1226 1.7497 13.0221 1.80079 12.9126 1.85717C12.0886 2.29545 11.1455 3.40743 10.6106 4.56319L10.6105 4.56329C9.81115 6.28094 9.41363 8.72257 9.57911 10.9134L9.57911 10.9135C9.59903 11.1857 9.61892 11.436 9.6363 11.6197C9.645 11.7117 9.65302 11.7864 9.66005 11.8388C9.66183 11.8521 9.66353 11.8637 9.66511 11.8736C9.6871 11.8652 9.71632 11.8527 9.75139 11.8364C9.83211 11.7989 9.94043 11.7431 10.0556 11.6773L10.0567 11.6767C10.3971 11.4932 10.6636 11.3764 10.9466 11.3061C11.2295 11.2358 11.5263 11.2125 11.9265 11.2125L11.9273 11.2125C12.3655 11.2191 12.7505 11.2588 12.9577 11.3278L13.2053 11.4035L13.1788 11.2442L13.1786 11.2434C13.1586 11.1097 13.0921 10.6044 13.0389 10.1326ZM25.3441 10.048L25.3439 10.048C25.1612 9.98385 24.8496 9.93604 24.5338 9.91537C24.2178 9.89469 23.9066 9.9018 23.7247 9.94329L23.7238 9.94349C23.3606 10.0187 22.9904 10.1645 22.6909 10.3356C22.5412 10.421 22.4101 10.5123 22.3067 10.6035C22.203 10.695 22.1298 10.7841 22.0923 10.8649C22.0192 11.0282 21.0661 13.5476 20.1322 16.0323C19.6652 17.2745 19.2035 18.5069 18.8598 19.4296C18.6879 19.8909 18.5456 20.2748 18.4468 20.5437C18.4349 20.5762 18.4235 20.6071 18.4129 20.6363C18.4479 20.5863 18.4871 20.5302 18.5302 20.4684C18.7333 20.1772 19.0224 19.7599 19.3689 19.2582C20.062 18.2549 20.9846 16.9144 21.9077 15.5705C22.8307 14.2266 23.7541 12.8795 24.4489 11.8629C24.7963 11.3546 25.0864 10.9289 25.2908 10.6277C25.393 10.4771 25.4737 10.3577 25.5293 10.2745C25.5571 10.233 25.5786 10.2006 25.5933 10.178L25.6011 10.1659C25.5908 10.1582 25.5758 10.1486 25.5557 10.1376C25.5041 10.1095 25.4289 10.0774 25.3441 10.048ZM21.5069 10.7793C21.507 10.7787 21.507 10.7789 21.5068 10.7794L21.5069 10.7793ZM16.1935 20.9327C16.2751 21.0385 16.3432 21.1265 16.3959 21.1942C16.3742 21.1162 16.3448 21.0171 16.3089 20.9003C16.207 20.5698 16.0528 20.1006 15.8703 19.573L15.8702 19.5726C15.7041 19.0807 15.4606 18.3647 15.1954 17.5851C14.8868 16.6778 14.5489 15.6844 14.2698 14.858C14.0076 14.0912 13.762 13.3892 13.577 12.8748C13.4845 12.6176 13.4072 12.4076 13.3506 12.2599C13.3223 12.186 13.2993 12.1281 13.2823 12.0878C13.2738 12.0676 13.267 12.0525 13.2619 12.0422C13.2609 12.0401 13.26 12.0383 13.2592 12.0368C13.2513 12.0326 13.2386 12.0266 13.2208 12.0189C13.1964 12.0084 13.1653 11.9961 13.1292 11.9825C13.0571 11.9555 12.9666 11.9242 12.8743 11.8945C12.6809 11.8333 12.3786 11.7905 12.0772 11.7731C11.7755 11.7558 11.4821 11.7644 11.3063 11.8028L11.3055 11.8029C10.8804 11.8879 10.3954 12.0978 10.0757 12.3196L10.0757 12.3196C9.98978 12.3791 9.91243 12.4351 9.85679 12.4776C9.8331 12.4957 9.81377 12.5111 9.79953 12.5231C9.81164 12.5398 9.8284 12.5627 9.84961 12.5913C9.89798 12.6567 9.96901 12.7517 10.0595 12.8723C10.2406 13.1134 10.4994 13.4561 10.8105 13.867C11.4326 14.6887 12.2635 15.7827 13.0985 16.8801C13.9336 17.9774 14.7728 19.0781 15.4115 19.9131C15.7308 20.3306 16 20.6817 16.1935 20.9327Z" fill="white" stroke="white" stroke-width="0.1"/>
<path d="M27.2334 15.2583L27.2337 15.2583L27.4125 15.7515L27.4246 15.8C27.4246 15.8 27.4246 15.8 27.4245 15.8C26.9487 15.919 26.6561 15.9809 26.4823 15.9792C26.3951 15.9783 26.3256 15.9616 26.2792 15.9161C26.2323 15.87 26.2203 15.8056 26.2203 15.7382L26.2203 15.7372C26.2203 15.6981 26.2203 15.6532 26.2442 15.6121C26.2686 15.57 26.3125 15.5401 26.377 15.5116C26.5053 15.4548 26.7546 15.3871 27.2334 15.2583Z" fill="white" stroke="white" stroke-width="0.1"/>
<path d="M3.95109 17.9145C4.10137 17.8868 4.29703 17.8601 4.50392 17.8401C5.03034 17.7871 5.321 17.7601 5.49215 17.7618C5.5779 17.7627 5.63903 17.7706 5.68668 17.789C5.73669 17.8083 5.76771 17.8375 5.79569 17.8711L5.7957 17.8711L5.79632 17.8719C5.83451 17.9196 5.85633 17.9711 5.85604 18.0239C5.85575 18.0774 5.8329 18.1252 5.79521 18.165C5.72217 18.2419 5.58909 18.2939 5.41954 18.3178C5.25679 18.3448 4.80341 18.3847 4.41931 18.4112L4.4192 18.4112C4.24512 18.4228 4.11285 18.4316 4.01209 18.4359C3.912 18.4401 3.83971 18.4401 3.7869 18.4333C3.73357 18.4264 3.69236 18.4116 3.6623 18.3797C3.63456 18.3503 3.62221 18.3115 3.61127 18.2771L3.61119 18.2769L3.61119 18.2769L3.61105 18.2764C3.5957 18.2265 3.59173 18.1745 3.59762 18.1284C3.60335 18.0835 3.6193 18.0379 3.65005 18.0072C3.66325 17.994 3.68193 17.9848 3.69803 17.9781C3.71578 17.9707 3.73753 17.9636 3.76214 17.9566C3.81147 17.9426 3.87605 17.9284 3.95109 17.9145Z" fill="white" stroke="white" stroke-width="0.1"/>
<path d="M24.4985 20.7298C24.508 20.6627 24.5586 20.6102 24.6205 20.5654C24.6526 20.542 24.6886 20.527 24.7359 20.5263C24.7805 20.5257 24.8323 20.5378 24.897 20.5614C25.0261 20.6084 25.2253 20.7082 25.5562 20.8803L25.5564 20.8804C25.9545 21.0894 26.2141 21.2407 26.3668 21.361C26.443 21.421 26.4967 21.4764 26.5267 21.5308C26.5581 21.5879 26.5635 21.6441 26.5429 21.6992L26.5429 21.6992L26.5425 21.7002C26.5198 21.757 26.4852 21.8053 26.4258 21.8291C26.3691 21.8519 26.2995 21.848 26.2162 21.8263C26.0498 21.783 25.7935 21.6585 25.3898 21.4401L25.3898 21.4401C25.1753 21.3237 25.0044 21.2264 24.8726 21.1431C24.7414 21.0602 24.6461 20.9895 24.5849 20.9261C24.5246 20.8636 24.4886 20.7988 24.4985 20.7298Z" fill="white" stroke="white" stroke-width="0.1"/>
<path d="M8.44579 22.9681L8.44575 22.9682C8.135 23.3517 7.93122 23.5804 7.78737 23.6815C7.71567 23.7319 7.64722 23.7591 7.58198 23.7436C7.51653 23.7281 7.47304 23.674 7.4398 23.6111C7.41857 23.5722 7.40037 23.5307 7.4051 23.4769C7.4096 23.4257 7.43422 23.37 7.47881 23.2987C7.56803 23.1559 7.755 22.9237 8.10231 22.4937C8.22874 22.3356 8.33435 22.2107 8.42411 22.1163C8.51334 22.0224 8.58946 21.956 8.65708 21.9178C8.72571 21.8791 8.79205 21.866 8.85539 21.8911C8.91498 21.9147 8.96056 21.9679 9.00013 22.0331C9.0244 22.069 9.02851 22.1108 9.01663 22.158C9.0052 22.2033 8.97828 22.2571 8.93646 22.3234C8.85242 22.4566 8.6977 22.6566 8.44579 22.9681Z" fill="white" stroke="white" stroke-width="0.1"/>
<path d="M20.2272 23.0762C19.1847 23.2355 16.98 23.5609 15.3198 23.8C11.9862 24.2848 11.9331 24.3047 11.5745 24.816C11.4417 25.0019 11.3686 25.2012 11.3487 25.4137C11.3288 25.6062 11.5015 26.9676 11.787 28.8734C12.2983 32.3133 12.3116 32.373 12.8097 32.7183C12.9956 32.8445 13.1749 32.9043 13.4405 32.9242C13.6995 32.9441 15.4061 32.7183 18.6999 32.2402C22.8968 31.6359 23.6272 31.5098 23.9327 31.3637C24.3976 31.1445 24.6233 30.8058 24.6632 30.2945C24.6964 29.823 23.853 23.9793 23.7069 23.6273C23.4878 23.1293 22.9366 22.7707 22.4054 22.784C22.246 22.7906 21.2698 22.9234 20.2272 23.0762ZM21.5222 23.9793C21.5487 24.0125 21.6683 24.7496 21.7878 25.6062C21.9073 26.4629 22.0202 27.1867 22.0468 27.2066C22.0667 27.2265 22.3456 27.2133 22.6577 27.1734C23.2753 27.0937 23.4147 27.1269 23.4147 27.366C23.4147 27.532 23.3616 27.5519 22.7042 27.6383C22.3854 27.6781 22.1132 27.718 22.0999 27.7246C22.0933 27.7312 22.1729 28.3754 22.2858 29.159C22.3921 29.9359 22.4651 30.6332 22.4452 30.693C22.3987 30.8523 22.1065 30.8523 22.0601 30.693C22.0401 30.6332 21.9339 29.9558 21.821 29.1922C21.7081 28.4285 21.6151 27.791 21.6018 27.7844C21.5819 27.7644 18.2749 28.1695 18.2417 28.1961C18.2284 28.2027 18.3214 28.9066 18.4409 29.7566C18.6468 31.2375 18.6534 31.2973 18.5339 31.3836C18.4542 31.4433 18.3811 31.45 18.3015 31.4101C18.2085 31.3637 18.1487 31.0515 17.9761 29.8031C17.8565 28.9531 17.7569 28.2558 17.7503 28.2492C17.7304 28.2359 14.4167 28.641 14.3901 28.6609C14.3768 28.6742 14.4632 29.398 14.5827 30.2746C14.762 31.5828 14.7886 31.8883 14.7155 31.9746C14.596 32.1207 14.4565 32.1008 14.3835 31.9281C14.3503 31.8418 14.2308 31.118 14.1179 30.3144C14.005 29.5109 13.9054 28.8203 13.8921 28.7871C13.8722 28.7406 13.6862 28.734 13.3011 28.7805C12.6702 28.8469 12.5241 28.8203 12.5241 28.6277C12.5241 28.4418 12.6171 28.4019 13.2546 28.3223C13.5667 28.2824 13.8124 28.2226 13.8124 28.1894C13.8058 28.1496 13.7194 27.5055 13.6198 26.7551C13.5136 26.0047 13.4472 25.3406 13.4737 25.2808C13.5202 25.148 13.8257 25.1281 13.8655 25.2476C13.8854 25.2941 13.9851 25.9715 14.0913 26.7418L14.2772 28.1562H14.5163C14.8151 28.1496 17.6241 27.791 17.6573 27.7512C17.6772 27.7379 17.6042 27.1269 17.4979 26.3965C17.2788 24.8492 17.2655 24.5969 17.405 24.5437C17.4847 24.5172 17.6972 24.5504 17.7038 24.5969C17.7038 24.5969 17.8034 25.2808 17.9296 26.1109C18.0491 26.9476 18.162 27.6449 18.1886 27.6648C18.2351 27.7113 21.3893 27.3527 21.4956 27.293C21.5222 27.273 21.4491 26.5558 21.3296 25.6992C21.1835 24.6765 21.1304 24.0988 21.1702 24.0191C21.2366 23.893 21.4558 23.8664 21.5222 23.9793Z" fill="url(#paint0_linear_1_1107)"/>
<defs>
<linearGradient id="paint0_linear_1_1107" x1="11.3472" y1="32.9724" x2="16.4972" y2="19.669" gradientUnits="userSpaceOnUse">
<stop stop-color="#549BF6"/>
<stop offset="1" stop-color="#4372DB"/>
</linearGradient>
</defs>
</svg>
