<svg width="22" height="23" viewBox="0 0 22 23" fill="none" xmlns="http://www.w3.org/2000/svg">
<g id="Frame">
<path id="Vector" fill-rule="evenodd" clip-rule="evenodd" d="M12.7738 2.91413C11.7494 2.04946 10.2508 2.04946 9.22631 2.91413L8.12849 3.84076C7.98334 3.96326 7.80373 4.03766 7.61448 4.05367L6.18296 4.17473C4.84716 4.2877 3.78746 5.3474 3.67449 6.68321L3.55342 8.11472C3.53742 8.30397 3.46302 8.48358 3.34052 8.62873L2.41389 9.72654C1.54921 10.751 1.54921 12.2497 2.41389 13.2741L3.34052 14.3719C3.46302 14.517 3.53742 14.6967 3.55342 14.8859L3.67449 16.3175C3.78746 17.6532 4.84716 18.713 6.18296 18.8259L7.61448 18.947C7.80373 18.963 7.98334 19.0374 8.12849 19.1599L9.22631 20.0865C10.2508 20.9512 11.7494 20.9512 12.7738 20.0865L13.8717 19.1599C14.0168 19.0374 14.1965 18.963 14.3857 18.947L15.8172 18.8259C17.153 18.713 18.2127 17.6532 18.3257 16.3175L18.4468 14.8859C18.4627 14.6967 18.5372 14.517 18.6596 14.3719L19.5863 13.2741C20.451 12.2497 20.451 10.751 19.5863 9.72654L18.6596 8.62873C18.5372 8.48358 18.4627 8.30397 18.4468 8.11472L18.3257 6.68321C18.2127 5.3474 17.153 4.2877 15.8172 4.17473L14.3857 4.05367C14.1965 4.03766 14.0168 3.96326 13.8717 3.84076L12.7738 2.91413ZM15.2501 9.79208C15.5723 9.46989 15.5723 8.94753 15.2501 8.62535C14.9279 8.30317 14.4056 8.30317 14.0834 8.62535L10.0834 12.6253L7.91676 10.4587C7.59457 10.1365 7.07221 10.1365 6.75003 10.4587C6.42784 10.7809 6.42784 11.3032 6.75003 11.6254L9.50002 14.3754C9.82223 14.6976 10.3445 14.6976 10.6668 14.3754L15.2501 9.79208Z" fill="#00FF38"/>
</g>
</svg>
