<svg width="214" height="184" viewBox="0 0 214 184" fill="none" xmlns="http://www.w3.org/2000/svg">
<g id="Vector">
<path d="M118.032 90.1918L118.032 8.38086e-06L213.898 0V85.0478L167.009 184L118.032 184L154.632 90.1918H118.032ZM7.88482e-06 90.1918L0 1.86995e-05L95.8658 1.03187e-05L95.8658 85.0478L48.9773 184H1.60858e-05L36.6005 90.1918H7.88482e-06Z" fill="#549BF6"/>
<path d="M118.032 90.1918L118.032 8.38086e-06L213.898 0V85.0478L167.009 184L118.032 184L154.632 90.1918H118.032ZM7.88482e-06 90.1918L0 1.86995e-05L95.8658 1.03187e-05L95.8658 85.0478L48.9773 184H1.60858e-05L36.6005 90.1918H7.88482e-06Z" fill="black" fill-opacity="0.6"/>
</g>
</svg>
