<svg width="285" height="68" viewBox="0 0 285 68" fill="none" xmlns="http://www.w3.org/2000/svg">
<path d="M96.4971 33.6165V43.5064L101.127 43.4393L105.758 43.3722L107.249 42.6338C111.19 40.6871 111.88 35.9435 108.63 33.2361L107.828 32.5872L108.296 31.6027C109.565 28.7834 107.85 25.1585 104.778 24.2188C104.333 24.0845 102.285 23.9279 100.237 23.8608L96.4971 23.7265V33.6165ZM103.376 27.3961C105.357 27.8212 106.025 29.4546 104.756 30.7524C104.133 31.3789 104.021 31.4013 101.973 31.4013H99.8363V29.2756V27.15H101.061C101.706 27.15 102.775 27.2618 103.376 27.3961ZM105.691 35.2722C106.515 35.6303 107.405 36.7714 107.405 37.5098C107.405 38.3153 106.737 39.1879 105.78 39.6578C104.979 40.0382 104.4 40.1277 102.33 40.1277H99.8363V37.4203V34.6905L102.352 34.8247C103.843 34.8919 105.201 35.0709 105.691 35.2722Z" fill="white"/>
<path d="M114.974 33.6381V43.4833H116.644H118.313V33.6381V23.7929H116.644H114.974V33.6381Z" fill="white"/>
<path d="M123.611 23.9272C123.5 24.0167 123.433 28.447 123.433 33.7948V43.4833H125.103H126.773V39.7019V35.9204L129.733 35.8309C132.138 35.7638 132.872 35.6743 133.696 35.2715C138.794 32.9445 138.638 26.4556 133.451 24.4195C132.405 24.0167 131.626 23.9272 127.997 23.8377C125.682 23.7929 123.7 23.8153 123.611 23.9272ZM131.648 27.3954C133.718 27.8429 134.764 29.8343 133.674 31.2216C132.894 32.2509 131.937 32.5194 129.244 32.5194H126.773V29.9909C126.773 28.5813 126.839 27.373 126.928 27.3059C127.151 27.0598 130.423 27.1269 131.648 27.3954Z" fill="white"/>
<path d="M147.431 24.2189C141.732 26.0984 138.95 32.5426 141.532 37.935C143.914 42.9024 149.568 44.9833 154.51 42.7234L155.668 42.1864L156.314 42.8353C156.959 43.4842 156.981 43.5065 159.163 43.4394L161.389 43.3723L159.786 41.6717L158.184 39.9712L159.119 38.114L160.054 36.2793V33.6613C160.054 31.1329 160.031 31.021 159.23 29.3876C158.206 27.2843 156.536 25.6285 154.444 24.6217C153.13 24.0175 152.64 23.9056 150.815 23.8609C149.212 23.8161 148.389 23.9056 147.431 24.2189ZM152.952 27.5752C154.266 28.1793 155.512 29.3876 156.158 30.663C157.048 32.4531 157.004 35.608 156.069 36.8834C155.757 37.3085 155.646 37.219 153.531 34.9815L151.327 32.6321L150.147 33.7956L148.945 34.9367L151.104 37.2862L153.264 39.6356L152.551 39.9265C151.372 40.4411 148.878 40.3068 147.698 39.7027C145.294 38.4721 144.114 36.682 143.959 34.0641C143.869 32.5649 143.936 32.2069 144.471 30.9763C145.183 29.3876 146.563 28.0227 147.988 27.5081C149.346 27.0382 151.839 27.0606 152.952 27.5752Z" fill="white"/>
<path d="M165.552 30.8857C165.619 39.008 165.641 39.0975 167.6 41.2008C169.114 42.8118 170.895 43.5726 173.188 43.5726C175.904 43.5726 178.085 42.409 179.51 40.1715C180.734 38.2472 180.89 37.1284 180.823 30.1473L180.757 23.9046L179.154 23.8374L177.551 23.7703L177.484 30.4382C177.417 37.0166 177.417 37.1284 176.883 38.0458C175.525 40.44 172.431 41.0218 170.383 39.2989C169.003 38.113 168.958 37.9787 168.847 30.6172L168.736 23.9046L167.11 23.8374L165.485 23.7703L165.552 30.8857Z" fill="white"/>
<path d="M206.023 33.6385V43.4837H207.693H209.363V37.6213V31.7366L215.373 37.778L221.384 43.8193V33.7951V23.7709L219.781 23.8381L218.156 23.9052L218.045 29.6781L217.933 35.4285L212.145 29.6109C208.962 26.4112 206.291 23.7933 206.202 23.7933C206.09 23.7933 206.023 28.2236 206.023 33.6385Z" fill="white"/>
<path d="M225.391 25.4711V27.1493H228.285H231.179V35.3163V43.4833H232.848H234.518V35.3163V27.1493H237.412H240.306V25.4711V23.7929H232.848H225.391V25.4711Z" fill="white"/>
<path d="M244.358 30.7968L244.424 37.778L245.159 39.2771C246.005 41 247.207 42.1859 248.966 42.9914C249.967 43.4613 250.546 43.5732 251.993 43.5956C253.574 43.5956 253.952 43.5061 255.266 42.8572C256.98 42.0069 258.16 40.7987 258.983 39.031L259.562 37.778L259.629 30.7744L259.696 23.7933H258.026H256.356L256.29 30.5954L256.223 37.3976L255.555 38.3597C255.199 38.8744 254.442 39.5456 253.885 39.8589C251.882 40.9329 249.3 40.0379 248.164 37.9122C247.652 36.9501 247.652 36.7934 247.652 30.3493V23.7933H245.96H244.291L244.358 30.7968Z" fill="white"/>
<path d="M264.571 33.5934V43.4833H266.241H267.91L267.955 38.7845L268.022 34.0856L271.316 38.6726C273.142 41.201 274.678 43.2148 274.767 43.1701C274.856 43.1253 276.325 41.1115 278.039 38.7174L281.156 34.3542L281.223 38.9187L281.267 43.4833H282.937H284.606V33.5934V23.7258L279.687 30.6398C276.993 34.4437 274.722 37.5315 274.678 37.5091C274.611 37.4867 272.452 34.5108 269.892 30.9083C267.309 27.3059 265.061 24.1957 264.883 24.0167C264.616 23.7482 264.571 25.046 264.571 33.5934Z" fill="white"/>
<path d="M193.268 24.7103C193.09 25.1355 191.108 29.3868 188.882 34.1975C186.656 38.9859 184.786 43.0582 184.719 43.1925C184.63 43.4162 185.053 43.4833 186.456 43.4833L188.326 43.461L188.927 42.1408L189.528 40.7983H193.49H197.453L198.009 42.1408L198.566 43.4833H200.391H202.217L201.482 41.7381C199.835 37.9119 193.757 24.1286 193.668 24.0615C193.624 24.0167 193.446 24.3076 193.268 24.7103ZM194.737 34.6898C195.316 36.0323 195.783 37.1735 195.783 37.263C195.783 37.3748 194.715 37.442 193.424 37.442C192.132 37.442 191.108 37.3525 191.153 37.263C191.598 36.0771 193.446 32.2956 193.557 32.2956C193.624 32.2956 194.18 33.3696 194.737 34.6898Z" fill="white"/>
<path d="M28.683 0.668709C28.0241 1.15672 28.0241 1.95846 27.92 33.6794C27.816 69.5485 27.7466 67.8056 29.9315 67.8056C32.1164 67.8056 32.047 69.5485 31.943 33.6794C31.8389 1.95846 31.8389 1.15672 31.18 0.668709C30.7985 0.389839 30.2436 0.180695 29.9315 0.180695C29.6194 0.180695 29.0645 0.389839 28.683 0.668709Z" fill="white"/>
<path d="M35.4456 0.773659C35.0294 1.22681 34.96 6.87384 34.856 33.6449L34.7866 65.9585L35.5149 66.8648C36.3472 67.9454 37.5611 68.0848 38.3587 67.1785C38.9136 66.5859 38.9483 63.7624 38.9483 33.9238C38.9483 2.79543 38.9136 1.29653 38.324 0.773659C37.4917 0.0067749 36.0351 0.0067749 35.4456 0.773659Z" fill="white"/>
<path d="M21.6082 2.6205C20.9493 3.28281 20.9146 3.77082 20.9146 10.4636C20.9146 18.3764 20.7412 19.2479 18.8337 20.2239C18.2789 20.5028 17.065 20.7468 16.094 20.7468C13.8744 20.7468 12.6953 21.1999 12.1751 22.2805C11.8629 22.9777 11.8976 23.3263 12.3832 24.0583C12.938 24.8949 13.1114 24.9297 16.2674 24.9297C20.9146 24.9297 22.7873 23.884 24.348 20.3982C25.0069 18.969 25.0763 18.1324 25.0763 10.9168C25.0763 3.14337 25.0763 3.00394 24.3133 2.48107C23.2729 1.74904 22.4405 1.7839 21.6082 2.6205Z" fill="white"/>
<path d="M42.59 2.79562C40.4398 4.92197 42.9715 8.02435 45.4685 6.24658C47.0291 5.16598 46.0234 1.92417 44.1506 1.92417C43.7345 1.92417 43.0408 2.30761 42.59 2.79562Z" fill="white"/>
<path d="M14.6718 6.10627C14.0823 6.69886 13.9782 7.25659 13.9782 9.73152C13.9782 12.4853 13.9089 12.7293 13.0765 13.3916C11.8974 14.3328 11.7934 14.3328 10.4061 13.0779C8.46402 11.3699 6.69531 11.7882 6.69531 13.9842C6.69531 15.274 7.97849 17.0169 9.50444 17.7838C11.3772 18.7947 14.3597 18.3415 15.9897 16.8077C17.6544 15.2391 18.1399 13.7054 18.1399 9.97553C18.1399 6.76858 18.0705 6.45485 17.3769 5.96684C16.3365 5.23482 15.5042 5.26967 14.6718 6.10627Z" fill="white"/>
<path d="M48.0694 7.46578C45.7111 8.26752 44.4279 9.27841 43.0754 11.4048C42.035 13.0082 41.8962 13.6008 41.7922 15.9015C41.6535 18.2021 41.7575 18.7947 42.5552 20.2936C43.7343 22.664 45.8498 24.4417 48.0347 24.8949C48.9711 25.104 52.89 25.2783 56.7395 25.2783C64.3693 25.2783 65.2363 25.104 65.7912 23.4308C66.0686 22.6291 65.9993 22.3502 65.375 21.6879C64.612 20.9559 64.3346 20.921 57.0517 20.8513C52.9247 20.8165 49.1792 20.677 48.763 20.5725C48.3122 20.4679 47.4798 19.7359 46.9249 18.9341C45.5377 17.0518 45.5377 15.4135 46.8903 13.5311C48.1388 11.7882 49.526 11.1956 51.8149 11.4048C53.7917 11.6139 55.0402 12.5899 56.4621 15.0649C57.4678 16.7729 58.4042 17.1912 59.5833 16.4243C60.8665 15.5877 60.9706 14.6466 59.9301 12.5551C57.78 8.09323 52.6472 5.89716 48.0694 7.46578Z" fill="white"/>
<path d="M49.3526 14.4726C47.8614 15.9715 48.9364 18.4116 51.0866 18.4116C53.3062 18.4116 54.2773 16.0412 52.7166 14.5423C51.7109 13.6011 50.2543 13.5663 49.3526 14.4726Z" fill="white"/>
<path d="M2.88049 21.4436C1.97879 22.3499 2.01348 23.6745 2.94985 24.5808C4.51048 26.0449 7.04216 24.9991 7.04216 22.8728C7.04216 20.9556 4.30239 20.0144 2.88049 21.4436Z" fill="white"/>
<path d="M0.86922 28.6248C-0.0671561 29.2871 -0.136517 30.8557 0.730497 31.6575C1.28539 32.1803 2.46453 32.2501 10.1983 32.2501C15.0536 32.2501 19.5967 32.3895 20.2903 32.5638C20.984 32.7381 22.1631 33.3655 22.8914 33.9581C24.3133 35.1433 25.4231 35.3176 26.2554 34.481C27.9201 32.8426 25.7699 29.6357 22.3018 28.6248C19.5967 27.8231 2.01368 27.7882 0.86922 28.6248Z" fill="white"/>
<path d="M44.4279 28.6252C42.2083 29.3223 39.9888 31.4138 39.9888 32.8779C39.9888 34.1327 40.7517 35.0391 41.8615 35.0391C42.3124 35.0391 43.3875 34.4465 44.3238 33.7145L45.9885 32.4247L56.1846 32.2504C65.7911 32.0761 66.4501 32.0413 66.9009 31.4138C67.5598 30.4726 67.5252 29.6012 66.6928 28.7646C66.0339 28.1023 65.5484 28.0674 56.0459 28.1023C48.3468 28.1023 45.6764 28.2417 44.4279 28.6252Z" fill="white"/>
<path d="M1.49342 35.4229C0.453007 35.8412 0.106201 36.3292 0.106201 37.5144C0.106201 39.4316 0.695771 39.571 8.63762 39.571C12.6259 39.571 16.4408 39.7453 17.0997 39.9196C17.7933 40.0939 18.8684 40.8259 19.5273 41.4882L20.7411 42.7431L20.9146 54.072C21.088 64.8084 21.1226 65.4358 21.7469 65.9238C22.6139 66.5513 23.3422 66.5513 24.3132 65.8541C25.0762 65.3312 25.0762 65.2964 25.0762 53.9326C25.0762 42.7083 25.0415 42.4991 24.2439 40.7562C23.1688 38.4207 20.9839 36.5732 18.2095 35.7366C16.302 35.144 15.0189 35.0395 9.15783 35.0743C5.41233 35.0743 1.97895 35.2486 1.49342 35.4229Z" fill="white"/>
<path d="M49.7687 35.4226C46.37 36.0849 43.9077 38.0369 42.4858 41.209C41.9656 42.3593 41.8962 43.9977 41.7922 53.514C41.6881 64.32 41.6881 64.5292 42.4164 65.4703C43.2834 66.5858 44.4973 66.6904 45.3296 65.7492C45.8845 65.1217 45.9538 64.0063 46.0232 54.3157C46.1272 39.0478 45.6764 39.5707 58.5082 39.5707C62.7392 39.5707 66.346 39.4313 66.5541 39.2918C67.2477 38.8387 67.7679 37.4792 67.5598 36.7472C67.109 35.318 65.479 35.0391 58.1267 35.074C54.3465 35.1088 50.601 35.2483 49.7687 35.4226Z" fill="white"/>
<path d="M2.60348 43.5094C1.66711 44.4854 1.63243 45.5312 2.46476 46.2981C2.98497 46.7861 3.85199 46.8907 6.66111 46.8907C10.7881 46.8907 12.2447 47.3787 13.2851 49.0519C13.9094 50.0976 13.9787 50.7948 13.9787 56.0584C13.9787 61.81 13.9787 61.9145 14.8457 62.7511C15.8515 63.7969 16.0596 63.8317 17.2387 62.8906L18.1404 62.1934V55.6401C18.1404 49.3307 18.1057 49.0519 17.2387 47.309C15.5047 43.8231 13.077 42.7077 7.216 42.7077C3.60922 42.7077 3.2971 42.7774 2.60348 43.5094Z" fill="white"/>
<path d="M53.6879 43.5438C52.7515 43.997 51.5377 44.7987 51.0175 45.3564C49.2141 47.3085 49.006 48.3543 49.006 55.7093C49.006 61.8095 49.0753 62.5415 49.6302 63.0296C50.4626 63.7964 51.1562 63.7616 52.0926 62.9947C52.7862 62.437 52.8555 62.0535 52.9249 56.3019C53.0289 47.4131 53.4451 46.8902 60.728 46.8902C64.6816 46.8902 64.959 46.8554 65.4446 46.1233C66.1729 45.0776 66.1382 44.241 65.3059 43.4044C64.6816 42.7769 64.1614 42.7072 60.0344 42.7072C55.9074 42.7072 55.2485 42.8118 53.6879 43.5438Z" fill="white"/>
<path d="M7.52789 52.642C6.55684 53.618 6.4528 54.9078 7.31981 55.8838C8.42959 57.2433 10.5104 56.8947 11.204 55.2912C11.5162 54.4546 11.5162 54.0712 11.0653 53.1997C10.7532 52.6072 10.3023 52.1191 10.0596 52.0843C9.85149 52.0843 9.36596 52.0146 8.98448 51.9448C8.63767 51.8751 7.97874 52.1889 7.52789 52.642Z" fill="white"/>
<path d="M56.15 52.8858C55.3523 54.0361 55.4911 55.1865 56.4968 56.1276C57.7106 57.2431 58.1961 57.2082 59.4793 55.9533C60.3117 55.0819 60.4851 54.6984 60.277 53.9316C59.9302 52.5024 59.4446 52.1189 57.9881 52.1189C57.017 52.1189 56.5315 52.3281 56.15 52.8858Z" fill="white"/>
</svg>
