<svg width="19" height="19" viewBox="0 0 19 19" fill="none" xmlns="http://www.w3.org/2000/svg">
<g id="ion:pricetags" clip-path="url(#clip0_1_11186)">
<path id="Vector" d="M16.2968 6.96172V2.6375C16.2975 2.43075 16.2573 2.22591 16.1786 2.03474C16.0998 1.84357 15.9841 1.66982 15.8381 1.52348C15.692 1.37714 15.5185 1.26109 15.3275 1.18198C15.1365 1.10287 14.9317 1.06227 14.725 1.0625H10.4032C10.1198 1.06308 9.84812 1.17539 9.64702 1.37504L1.00702 10.0126C0.712342 10.3082 0.546875 10.7086 0.546875 11.126C0.546875 11.5434 0.712342 11.9438 1.00702 12.2394L5.1203 16.3527C5.41581 16.6474 5.81615 16.8129 6.23352 16.8129C6.65089 16.8129 7.05123 16.6474 7.34674 16.3527L15.9843 7.71793C16.184 7.51687 16.2963 7.24512 16.2968 6.96172ZM12.9218 5.5625C12.6993 5.5625 12.4818 5.49652 12.2968 5.3729C12.1118 5.24929 11.9676 5.07359 11.8825 4.86802C11.7973 4.66245 11.775 4.43625 11.8184 4.21802C11.8618 3.9998 11.969 3.79934 12.1263 3.64201C12.2837 3.48467 12.4841 3.37753 12.7023 3.33412C12.9206 3.29071 13.1468 3.31299 13.3523 3.39814C13.5579 3.48329 13.7336 3.62748 13.8572 3.81248C13.9808 3.99749 14.0468 4.215 14.0468 4.4375C14.0468 4.73587 13.9283 5.02202 13.7173 5.233C13.5063 5.44397 13.2202 5.5625 12.9218 5.5625Z" fill="white"/>
<path id="Vector_2" d="M17.9843 2.75C17.8351 2.75 17.692 2.80926 17.5866 2.91475C17.4811 3.02024 17.4218 3.16332 17.4218 3.3125V7.79035L8.23512 16.9774C8.18069 17.0291 8.13716 17.0912 8.10711 17.16C8.07705 17.2288 8.06107 17.3029 8.0601 17.378C8.05914 17.4531 8.07322 17.5276 8.10151 17.5971C8.1298 17.6667 8.17172 17.7298 8.22481 17.7829C8.2779 17.836 8.34108 17.8779 8.41063 17.9062C8.48018 17.9345 8.55469 17.9486 8.62976 17.9476C8.70483 17.9467 8.77896 17.9307 8.84776 17.9006C8.91656 17.8706 8.97865 17.827 9.03036 17.7726L18.2413 8.56168C18.3393 8.46324 18.4167 8.34633 18.4692 8.21773C18.5216 8.08912 18.548 7.95138 18.5468 7.8125V3.3125C18.5468 3.16332 18.4875 3.02024 18.382 2.91475C18.2766 2.80926 18.1335 2.75 17.9843 2.75Z" fill="white"/>
</g>
<defs>
<clipPath id="clip0_1_11186">
<rect width="18" height="18" fill="white" transform="translate(0.546875 0.5)"/>
</clipPath>
</defs>
</svg>
