<svg width="75" height="120" viewBox="0 0 75 120" fill="none" xmlns="http://www.w3.org/2000/svg">
<path d="M75 60C75 77.1208 61.1208 91 44 91C42.8491 91 41.7129 90.9373 40.5946 90.8151C25.076 89.1194 13 75.97 13 60C13 43.8253 25.3875 30.5439 41.193 29.1254C42.1176 29.0424 43.0538 29 44 29C61.1208 29 75 42.8792 75 60Z" fill="url(#paint0_linear_102_1274)"/>
<path d="M40.5946 90.8151C25.076 89.1194 13 75.97 13 60C13 43.8253 25.3875 30.5439 41.193 29.1254C27.9764 29.2761 4.18101 23.7993 -4 0V119.5C0.468487 109.446 15.4504 90.3148 40.5946 90.8151Z" fill="url(#paint1_linear_102_1274)"/>
<defs>
<linearGradient id="paint0_linear_102_1274" x1="-4" y1="-0.553241" x2="83.0973" y2="112.721" gradientUnits="userSpaceOnUse">
<stop stop-color="#549BF6"/>
<stop offset="1" stop-color="#4372DB"/>
</linearGradient>
<linearGradient id="paint1_linear_102_1274" x1="-4" y1="-0.553241" x2="83.0973" y2="112.721" gradientUnits="userSpaceOnUse">
<stop stop-color="#549BF6"/>
<stop offset="1" stop-color="#4372DB"/>
</linearGradient>
</defs>
</svg>
