<svg width="28" height="28" viewBox="0 0 28 28" fill="none" xmlns="http://www.w3.org/2000/svg">
<path fill-rule="evenodd" clip-rule="evenodd" d="M22.1665 12.8333C22.7552 12.8331 23.3222 13.0555 23.7538 13.4557C24.1855 13.856 24.4499 14.4047 24.494 14.9917L24.4998 15.1667V22.1667C24.5 22.7553 24.2777 23.3223 23.8774 23.754C23.4772 24.1856 22.9285 24.45 22.3415 24.4942L22.1665 24.5H17.4998C16.9112 24.5002 16.3442 24.2779 15.9125 23.8776C15.4809 23.4773 15.2165 22.9287 15.1723 22.3417L15.1665 22.1667V15.1667C15.1663 14.578 15.3886 14.011 15.7889 13.5794C16.1892 13.1477 16.7378 12.8833 17.3248 12.8392L17.4998 12.8333H22.1665ZM22.1665 3.5C22.7853 3.5 23.3788 3.74583 23.8164 4.18342C24.254 4.621 24.4998 5.21449 24.4998 5.83333V8.16667C24.4998 8.7855 24.254 9.379 23.8164 9.81658C23.3788 10.2542 22.7853 10.5 22.1665 10.5H17.4998C16.881 10.5 16.2875 10.2542 15.8499 9.81658C15.4123 9.379 15.1665 8.7855 15.1665 8.16667V5.83333C15.1665 5.21449 15.4123 4.621 15.8499 4.18342C16.2875 3.74583 16.881 3.5 17.4998 3.5H22.1665Z" fill="#7E8EA7"/>
<path fill-rule="evenodd" clip-rule="evenodd" d="M10.5 3.5C11.1188 3.5 11.7123 3.74583 12.1499 4.18342C12.5875 4.621 12.8333 5.21449 12.8333 5.83333V12.8333C12.8333 13.4522 12.5875 14.0457 12.1499 14.4832C11.7123 14.9208 11.1188 15.1667 10.5 15.1667H5.83333C5.21449 15.1667 4.621 14.9208 4.18342 14.4832C3.74583 14.0457 3.5 13.4522 3.5 12.8333V5.83333C3.5 5.21449 3.74583 4.621 4.18342 4.18342C4.621 3.74583 5.21449 3.5 5.83333 3.5H10.5Z" fill="#7E8EA7"/>
<path fill-rule="evenodd" clip-rule="evenodd" d="M10.5 17.5C11.1188 17.5 11.7123 17.7458 12.1499 18.1834C12.5875 18.621 12.8333 19.2145 12.8333 19.8333V22.1667C12.8333 22.7855 12.5875 23.379 12.1499 23.8166C11.7123 24.2542 11.1188 24.5 10.5 24.5H5.83333C5.21449 24.5 4.621 24.2542 4.18342 23.8166C3.74583 23.379 3.5 22.7855 3.5 22.1667V19.8333C3.5 19.2145 3.74583 18.621 4.18342 18.1834C4.621 17.7458 5.21449 17.5 5.83333 17.5H10.5Z" fill="#7E8EA7"/>
</svg>
