<svg width="28" height="28" viewBox="0 0 28 28" fill="none" xmlns="http://www.w3.org/2000/svg">
<path d="M10.2351 27.615C11.2953 27.615 12.1547 26.7555 12.1547 25.6953C12.1547 24.6351 11.2953 23.7757 10.2351 23.7757C9.17488 23.7757 8.31543 24.6351 8.31543 25.6953C8.31543 26.7555 9.17488 27.615 10.2351 27.615Z" fill="url(#paint0_linear_120_1494)"/>
<path d="M21.8977 27.615C22.9579 27.615 23.8173 26.7555 23.8173 25.6953C23.8173 24.6351 22.9579 23.7757 21.8977 23.7757C20.8375 23.7757 19.978 24.6351 19.978 25.6953C19.978 26.7555 20.8375 27.615 21.8977 27.615Z" fill="url(#paint1_linear_120_1494)"/>
<path d="M10.4439 6.28563C10.4313 6.00289 10.4248 5.71786 10.4246 5.43246C10.4248 5.14705 10.4313 4.86203 10.4439 4.57928H7.38525L7.56469 6.28563H10.4439Z" fill="url(#paint2_linear_120_1494)"/>
<path d="M26.9634 6.28563C26.9508 6.00289 26.9444 5.71786 26.9441 5.43246C26.9444 5.14705 26.9508 4.86203 26.9634 4.57928H23.9048L24.0842 6.28563H26.9634Z" fill="url(#paint3_linear_120_1494)"/>
<path d="M24.4576 11.8313H24.0992L23.0328 16.5238H10.2351L6.33614 4.17835C6.29397 4.04735 6.22073 3.9285 6.12268 3.83193C6.02463 3.73537 5.90468 3.66395 5.77305 3.62378L2.27504 2.54878C2.16748 2.51573 2.05446 2.50419 1.94244 2.51481C1.83042 2.52544 1.72159 2.55802 1.62217 2.61071C1.42136 2.71711 1.27105 2.89892 1.2043 3.11615C1.13755 3.33337 1.15983 3.56821 1.26623 3.76902C1.37263 3.96982 1.55444 4.12013 1.77166 4.18688L4.83456 5.12537L8.75063 17.4964L7.35142 18.6396L7.24051 18.7506C6.89441 19.1494 6.69823 19.6565 6.68577 20.1844C6.67331 20.7123 6.84535 21.2281 7.17225 21.6428C7.40479 21.9256 7.70029 22.1501 8.0351 22.2982C8.36991 22.4463 8.73475 22.5141 9.10043 22.496H23.3399C23.5662 22.496 23.7832 22.4061 23.9432 22.2461C24.1032 22.0861 24.1931 21.8691 24.1931 21.6428C24.1931 21.4165 24.1032 21.1995 23.9432 21.0395C23.7832 20.8795 23.5662 20.7896 23.3399 20.7896H8.96392C8.86567 20.7863 8.76995 20.7576 8.686 20.7065C8.60206 20.6553 8.53272 20.5834 8.48469 20.4976C8.43666 20.4119 8.41155 20.3152 8.41181 20.2169C8.41206 20.1186 8.43767 20.022 8.48614 19.9365L10.5423 18.2301H23.7153C23.9125 18.2349 24.1053 18.1713 24.2609 18.0499C24.4164 17.9286 24.5251 17.7571 24.5685 17.5646L25.9079 11.6692C25.4322 11.7784 24.9456 11.8328 24.4576 11.8313Z" fill="url(#paint4_linear_120_1494)"/>
<path d="M17.3656 11.7372C20.4296 11.7372 22.9134 9.25337 22.9134 6.18942C22.9134 3.12548 20.4296 0.641663 17.3656 0.641663C14.3017 0.641663 11.8179 3.12548 11.8179 6.18942C11.8179 9.25337 14.3017 11.7372 17.3656 11.7372Z" fill="url(#paint5_linear_120_1494)"/>
<path d="M16.2236 4.70935V8.97498H15.4882V4.70935H16.2236ZM18.7577 7.38416H17.6474V6.80115H18.7577C18.9511 6.80115 19.1073 6.7699 19.2265 6.7074C19.3456 6.6449 19.4325 6.55896 19.4872 6.44958C19.5439 6.33826 19.5722 6.2113 19.5722 6.06873C19.5722 5.93396 19.5439 5.80798 19.4872 5.6908C19.4325 5.57166 19.3456 5.47595 19.2265 5.40369C19.1073 5.33142 18.9511 5.29529 18.7577 5.29529H17.873V8.97498H17.1376V4.70935H18.7577C19.0878 4.70935 19.3681 4.76794 19.5986 4.88513C19.831 5.00037 20.0077 5.16052 20.1288 5.3656C20.2499 5.56873 20.3105 5.80115 20.3105 6.06287C20.3105 6.33826 20.2499 6.57458 20.1288 6.77185C20.0077 6.96912 19.831 7.12048 19.5986 7.22595C19.3681 7.33142 19.0878 7.38416 18.7577 7.38416Z" fill="white"/>
<defs>
<linearGradient id="paint0_linear_120_1494" x1="8.31543" y1="23.7579" x2="10.6546" y2="28.3597" gradientUnits="userSpaceOnUse">
<stop stop-color="#549BF6"/>
<stop offset="1" stop-color="#4372DB"/>
</linearGradient>
<linearGradient id="paint1_linear_120_1494" x1="19.978" y1="23.7579" x2="22.3172" y2="28.3597" gradientUnits="userSpaceOnUse">
<stop stop-color="#549BF6"/>
<stop offset="1" stop-color="#4372DB"/>
</linearGradient>
<linearGradient id="paint2_linear_120_1494" x1="7.38525" y1="4.57138" x2="8.06078" y2="6.95353" gradientUnits="userSpaceOnUse">
<stop stop-color="#549BF6"/>
<stop offset="1" stop-color="#4372DB"/>
</linearGradient>
<linearGradient id="paint3_linear_120_1494" x1="23.9048" y1="4.57138" x2="24.5803" y2="6.95353" gradientUnits="userSpaceOnUse">
<stop stop-color="#549BF6"/>
<stop offset="1" stop-color="#4372DB"/>
</linearGradient>
<linearGradient id="paint4_linear_120_1494" x1="1.1665" y1="2.41845" x2="11.7604" y2="28.2161" gradientUnits="userSpaceOnUse">
<stop stop-color="#549BF6"/>
<stop offset="1" stop-color="#4372DB"/>
</linearGradient>
<linearGradient id="paint5_linear_120_1494" x1="11.8179" y1="0.590294" x2="18.5781" y2="13.8895" gradientUnits="userSpaceOnUse">
<stop stop-color="#549BF6"/>
<stop offset="1" stop-color="#4372DB"/>
</linearGradient>
</defs>
</svg>
