<svg width="28" height="28" viewBox="0 0 28 28" fill="none" xmlns="http://www.w3.org/2000/svg">
<path d="M14.0002 2.33331C7.56716 2.33331 2.3335 7.56698 2.3335 14V18.8335C2.3335 20.0281 3.38 21 4.66683 21H5.8335C6.14292 21 6.43966 20.8771 6.65845 20.6583C6.87725 20.4395 7.00016 20.1427 7.00016 19.8333V13.8331C7.00016 13.5237 6.87725 13.227 6.65845 13.0082C6.43966 12.7894 6.14292 12.6665 5.8335 12.6665H4.77416C5.42283 8.15148 9.30783 4.66665 14.0002 4.66665C18.6925 4.66665 22.5775 8.15148 23.2262 12.6665H22.1668C21.8574 12.6665 21.5607 12.7894 21.3419 13.0082C21.1231 13.227 21.0002 13.5237 21.0002 13.8331V21C21.0002 22.2868 19.9537 23.3333 18.6668 23.3333H16.3335V22.1666H11.6668V25.6666H18.6668C21.2405 25.6666 23.3335 23.5736 23.3335 21C24.6203 21 25.6668 20.0281 25.6668 18.8335V14C25.6668 7.56698 20.4332 2.33331 14.0002 2.33331Z" fill="url(#paint0_linear_120_1521)"/>
<defs>
<linearGradient id="paint0_linear_120_1521" x1="2.3335" y1="2.22529" x2="16.5499" y2="30.1929" gradientUnits="userSpaceOnUse">
<stop stop-color="#549BF6"/>
<stop offset="1" stop-color="#4372DB"/>
</linearGradient>
</defs>
</svg>
